{
.appVersion = "895";
copyright = "SIL OPEN FONT LICENSE Version 1.1";
date = "2017-03-14 03:51:06 +0000";
designer = "Trevor Bullock";
familyName = "KA Old Style Fthora";
fontMaster = (
{
ascender = 800;
capHeight = 700;
descender = -200;
id = "C0F12C34-0F87-4A08-A93A-59AC8BF14692";
xHeight = 500;
}
);
glyphs = (
{
glyphname = a;
lastChange = "2019-04-16 18:00:57 +0000";
layers = (
{
layerId = "C0F12C34-0F87-4A08-A93A-59AC8BF14692";
paths = (
{
closed = 1;
nodes = (
"-708 505 OFFCURVE",
"-721 514 OFFCURVE",
"-729 530 CURVE",
"-733 537 OFFCURVE",
"-737 567 OFFCURVE",
"-735 579 CURVE",
"-735 586 LINE",
"-763 589 LINE",
"-807 595 OFFCURVE",
"-838 593 OFFCURVE",
"-855 586 CURVE",
"-864 582 OFFCURVE",
"-866 577 OFFCURVE",
"-863 568 CURVE",
"-862 562 OFFCURVE",
"-862 560 OFFCURVE",
"-863 558 CURVE",
"-867 554 OFFCURVE",
"-912 549 OFFCURVE",
"-921 552 CURVE",
"-933 556 OFFCURVE",
"-945 576 OFFCURVE",
"-942 587 CURVE",
"-940 596 OFFCURVE",
"-919 606 OFFCURVE",
"-888 611 CURVE",
"-865 616 OFFCURVE",
"-811 617 OFFCURVE",
"-788 613 CURVE",
"-779 612 OFFCURVE",
"-760 610 OFFCURVE",
"-746 609 CURVE",
"-721 608 LINE",
"-712 621 LINE",
"-692 647 OFFCURVE",
"-668 663 OFFCURVE",
"-648 665 CURVE",
"-636 666 OFFCURVE",
"-619 663 OFFCURVE",
"-609 659 CURVE",
"-599 655 OFFCURVE",
"-587 643 OFFCURVE",
"-582 633 CURVE",
"-579 626 OFFCURVE",
"-578 621 OFFCURVE",
"-578 611 CURVE",
"-578 603 OFFCURVE",
"-579 595 OFFCURVE",
"-580 593 CURVE",
"-582 587 OFFCURVE",
"-574 584 OFFCURVE",
"-522 575 CURVE",
"-490 570 OFFCURVE",
"-472 573 OFFCURVE",
"-453 585 CURVE",
"-445 591 LINE",
"-412 594 LINE",
"-382 596 OFFCURVE",
"-378 596 OFFCURVE",
"-375 594 CURVE",
"-371 591 OFFCURVE",
"-368 583 OFFCURVE",
"-368 577 CURVE",
"-368 570 OFFCURVE",
"-378 562 OFFCURVE",
"-394 556 CURVE",
"-406 551 LINE",
"-485 551 LINE",
"-534 551 OFFCURVE",
"-567 552 OFFCURVE",
"-574 553 CURVE",
"-584 555 LINE",
"-591 544 LINE",
"-603 526 OFFCURVE",
"-620 511 OFFCURVE",
"-635 503 CURVE",
"-647 497 OFFCURVE",
"-661 493 OFFCURVE",
"-670 494 CURVE",
"-672 494 OFFCURVE",
"-679 495 OFFCURVE",
"-686 498 CURVE"
);
},
{
closed = 1;
nodes = (
"-654 541 OFFCURVE",
"-648 545 OFFCURVE",
"-644 549 CURVE",
"-637 558 OFFCURVE",
"-635 564 OFFCURVE",
"-641 566 CURVE",
"-652 568 OFFCURVE",
"-685 573 OFFCURVE",
"-687 572 CURVE",
"-689 571 OFFCURVE",
"-688 553 OFFCURVE",
"-686 548 CURVE",
"-684 543 OFFCURVE",
"-673 538 OFFCURVE",
"-666 537 CURVE",
"-664 537 OFFCURVE",
"-659 538 OFFCURVE",
"-657 540 CURVE"
);
},
{
closed = 1;
nodes = (
"-627 618 OFFCURVE",
"-631 623 OFFCURVE",
"-641 628 CURVE",
"-649 632 OFFCURVE",
"-661 632 OFFCURVE",
"-668 628 CURVE",
"-672 625 OFFCURVE",
"-677 615 OFFCURVE",
"-679 606 CURVE",
"-680 601 LINE",
"-665 600 LINE",
"-657 600 OFFCURVE",
"-647 598 OFFCURVE",
"-643 596 CURVE",
"-636 593 OFFCURVE",
"-635 593 OFFCURVE",
"-630 596 CURVE",
"-626 598 OFFCURVE",
"-626 598 OFFCURVE",
"-626 607 CURVE"
);
}
);
width = 0;
}
);
unicode = 0061;
},
{
glyphname = d;
lastChange = "2019-04-16 18:00:57 +0000";
layers = (
{
layerId = "C0F12C34-0F87-4A08-A93A-59AC8BF14692";
paths = (
{
closed = 1;
nodes = (
"-383 493 OFFCURVE",
"-386 496 OFFCURVE",
"-378 507 CURVE SMOOTH",
"-372 515 OFFCURVE",
"-371 534 OFFCURVE",
"-377 539 CURVE",
"-380 541 OFFCURVE",
"-385 546 OFFCURVE",
"-390 547 CURVE",
"-414 557 OFFCURVE",
"-501 569 OFFCURVE",
"-555 569 CURVE SMOOTH",
"-585 569 LINE",
"-596 552 LINE",
"-608 531 OFFCURVE",
"-626 513 OFFCURVE",
"-637 507 CURVE SMOOTH",
"-641 505 OFFCURVE",
"-655 502 OFFCURVE",
"-664 501 CURVE",
"-686 500 OFFCURVE",
"-705 505 OFFCURVE",
"-720 516 CURVE",
"-731 526 OFFCURVE",
"-741 545 OFFCURVE",
"-741 555 CURVE SMOOTH",
"-741 559 OFFCURVE",
"-744 562 OFFCURVE",
"-748 566 CURVE SMOOTH",
"-757 572 OFFCURVE",
"-753 572 OFFCURVE",
"-895 566 CURVE SMOOTH",
"-935 565 OFFCURVE",
"-984 563 OFFCURVE",
"-1005 563 CURVE SMOOTH",
"-1041 565 OFFCURVE",
"-1041 565 OFFCURVE",
"-1042 570 CURVE",
"-1044 574 OFFCURVE",
"-1041 578 OFFCURVE",
"-1033 580 CURVE",
"-1010 593 OFFCURVE",
"-990 594 OFFCURVE",
"-861 597 CURVE SMOOTH",
"-796 597 OFFCURVE",
"-740 598 OFFCURVE",
"-738 599 CURVE SMOOTH",
"-736 601 OFFCURVE",
"-732 606 OFFCURVE",
"-729 612 CURVE",
"-714 638 OFFCURVE",
"-669 672 OFFCURVE",
"-648 672 CURVE SMOOTH",
"-633 672 OFFCURVE",
"-619 667 OFFCURVE",
"-610 656 CURVE",
"-598 647 OFFCURVE",
"-585 625 OFFCURVE",
"-583 610 CURVE",
"-582 599 LINE",
"-560 598 LINE SMOOTH",
"-404 587 OFFCURVE",
"-323 571 OFFCURVE",
"-291 550 CURVE SMOOTH",
"-270 537 OFFCURVE",
"-269 526 OFFCURVE",
"-284 505 CURVE SMOOTH",
"-294 491 OFFCURVE",
"-301 488 OFFCURVE",
"-328 488 CURVE SMOOTH",
"-343 488 OFFCURVE",
"-359 490 OFFCURVE",
"-366 491 CURVE"
);
},
{
closed = 1;
nodes = (
"-649 556 OFFCURVE",
"-640 566 OFFCURVE",
"-640 570 CURVE SMOOTH",
"-640 571 OFFCURVE",
"-651 571 OFFCURVE",
"-666 571 CURVE SMOOTH",
"-690 571 LINE",
"-690 561 LINE SMOOTH",
"-690 554 OFFCURVE",
"-689 550 OFFCURVE",
"-684 548 CURVE",
"-675 545 OFFCURVE",
"-665 546 OFFCURVE",
"-657 550 CURVE"
);
},
{
closed = 1;
nodes = (
"-637 627 OFFCURVE",
"-643 635 OFFCURVE",
"-653 637 CURVE",
"-661 638 OFFCURVE",
"-665 638 OFFCURVE",
"-669 635 CURVE SMOOTH",
"-680 627 OFFCURVE",
"-688 614 OFFCURVE",
"-688 605 CURVE SMOOTH",
"-688 599 LINE",
"-634 599 LINE",
"-635 610 LINE SMOOTH"
);
}
);
width = 0;
}
);
unicode = 0064;
},
{
glyphname = e;
lastChange = "2019-04-16 18:00:57 +0000";
layers = (
{
layerId = "C0F12C34-0F87-4A08-A93A-59AC8BF14692";
paths = (
{
closed = 1;
nodes = (
"-683 406 OFFCURVE",
"-683 407 OFFCURVE",
"-680 438 CURVE",
"-679 456 OFFCURVE",
"-678 476 OFFCURVE",
"-677 481 CURVE",
"-677 492 OFFCURVE",
"-677 492 OFFCURVE",
"-683 493 CURVE",
"-714 501 OFFCURVE",
"-749 533 OFFCURVE",
"-755 561 CURVE",
"-764 598 OFFCURVE",
"-745 625 OFFCURVE",
"-693 652 CURVE",
"-673 662 LINE",
"-674 698 LINE",
"-677 742 OFFCURVE",
"-675 751 OFFCURVE",
"-665 761 CURVE",
"-659 767 OFFCURVE",
"-655 770 OFFCURVE",
"-648 770 CURVE",
"-642 770 OFFCURVE",
"-637 768 OFFCURVE",
"-635 767 CURVE",
"-633 765 OFFCURVE",
"-633 747 OFFCURVE",
"-633 715 CURVE",
"-634 665 LINE",
"-624 662 LINE",
"-580 656 OFFCURVE",
"-547 602 OFFCURVE",
"-563 566 CURVE",
"-572 545 OFFCURVE",
"-599 521 OFFCURVE",
"-629 508 CURVE",
"-642 503 LINE",
"-640 460 LINE",
"-640 425 OFFCURVE",
"-640 415 OFFCURVE",
"-643 410 CURVE",
"-650 393 OFFCURVE",
"-668 390 OFFCURVE",
"-677 400 CURVE"
);
},
{
closed = 1;
nodes = (
"-618 553 OFFCURVE",
"-615 558 OFFCURVE",
"-615 586 CURVE",
"-615 611 OFFCURVE",
"-619 618 OFFCURVE",
"-634 626 CURVE",
"-644 632 LINE",
"-658 623 LINE",
"-677 608 OFFCURVE",
"-685 596 OFFCURVE",
"-685 580 CURVE",
"-685 565 OFFCURVE",
"-680 552 OFFCURVE",
"-672 543 CURVE",
"-663 535 OFFCURVE",
"-657 536 OFFCURVE",
"-634 546 CURVE"
);
}
);
width = 0;
}
);
unicode = 0065;
},
{
glyphname = f;
lastChange = "2019-04-16 18:00:57 +0000";
layers = (
{
layerId = "C0F12C34-0F87-4A08-A93A-59AC8BF14692";
paths = (
{
closed = 1;
nodes = (
"-823 452 OFFCURVE",
"-827 458 OFFCURVE",
"-827 464 CURVE",
"-827 471 OFFCURVE",
"-805 493 OFFCURVE",
"-776 515 CURVE",
"-750 536 LINE",
"-756 547 LINE",
"-762 559 OFFCURVE",
"-764 578 OFFCURVE",
"-761 590 CURVE",
"-753 610 OFFCURVE",
"-732 629 OFFCURVE",
"-705 638 CURVE",
"-689 644 OFFCURVE",
"-648 646 OFFCURVE",
"-626 644 CURVE",
"-614 643 OFFCURVE",
"-612 644 OFFCURVE",
"-605 649 CURVE",
"-600 652 OFFCURVE",
"-594 657 OFFCURVE",
"-591 661 CURVE",
"-588 667 LINE",
"-608 680 LINE",
"-620 687 OFFCURVE",
"-630 694 OFFCURVE",
"-630 695 CURVE",
"-632 699 OFFCURVE",
"-629 704 OFFCURVE",
"-621 710 CURVE",
"-617 713 OFFCURVE",
"-617 713 OFFCURVE",
"-606 710 CURVE",
"-600 707 OFFCURVE",
"-590 701 OFFCURVE",
"-583 698 CURVE",
"-577 693 OFFCURVE",
"-570 689 OFFCURVE",
"-569 689 CURVE",
"-567 689 OFFCURVE",
"-560 697 OFFCURVE",
"-552 704 CURVE",
"-531 723 OFFCURVE",
"-524 725 OFFCURVE",
"-512 719 CURVE",
"-486 706 OFFCURVE",
"-487 698 OFFCURVE",
"-519 675 CURVE",
"-533 665 OFFCURVE",
"-535 661 OFFCURVE",
"-527 653 CURVE",
"-498 629 OFFCURVE",
"-492 622 OFFCURVE",
"-498 616 CURVE",
"-503 609 OFFCURVE",
"-511 613 OFFCURVE",
"-531 627 CURVE",
"-542 635 OFFCURVE",
"-552 643 OFFCURVE",
"-553 644 CURVE",
"-555 645 OFFCURVE",
"-576 635 OFFCURVE",
"-579 631 CURVE",
"-582 628 OFFCURVE",
"-579 625 OFFCURVE",
"-573 617 CURVE",
"-569 611 OFFCURVE",
"-563 602 OFFCURVE",
"-559 596 CURVE",
"-554 585 OFFCURVE",
"-553 583 OFFCURVE",
"-555 573 CURVE",
"-563 543 OFFCURVE",
"-603 517 OFFCURVE",
"-654 509 CURVE",
"-667 507 OFFCURVE",
"-672 507 OFFCURVE",
"-689 512 CURVE",
"-699 514 OFFCURVE",
"-710 518 OFFCURVE",
"-714 520 CURVE",
"-719 524 LINE",
"-744 497 LINE",
"-781 458 OFFCURVE",
"-803 436 OFFCURVE",
"-805 436 CURVE",
"-807 436 OFFCURVE",
"-811 440 OFFCURVE",
"-815 443 CURVE"
);
},
{
closed = 1;
nodes = (
"-630 553 OFFCURVE",
"-620 566 OFFCURVE",
"-620 580 CURVE",
"-620 599 OFFCURVE",
"-633 614 OFFCURVE",
"-656 616 CURVE",
"-666 617 OFFCURVE",
"-668 616 OFFCURVE",
"-680 608 CURVE",
"-699 596 OFFCURVE",
"-703 585 OFFCURVE",
"-697 565 CURVE",
"-689 543 OFFCURVE",
"-668 533 OFFCURVE",
"-650 543 CURVE"
);
}
);
width = 0;
}
);
unicode = 0066;
},
{
glyphname = g;
lastChange = "2019-04-16 18:00:57 +0000";
layers = (
{
layerId = "C0F12C34-0F87-4A08-A93A-59AC8BF14692";
paths = (
{
closed = 1;
nodes = (
"-813 436 OFFCURVE",
"-825 444 OFFCURVE",
"-825 448 CURVE",
"-825 450 OFFCURVE",
"-816 460 OFFCURVE",
"-804 471 CURVE",
"-782 489 LINE",
"-795 497 LINE",
"-801 502 OFFCURVE",
"-812 507 OFFCURVE",
"-818 509 CURVE",
"-830 514 OFFCURVE",
"-835 522 OFFCURVE",
"-828 528 CURVE",
"-825 531 OFFCURVE",
"-822 533 OFFCURVE",
"-819 533 CURVE",
"-817 533 OFFCURVE",
"-803 527 OFFCURVE",
"-788 520 CURVE",
"-774 513 OFFCURVE",
"-762 508 OFFCURVE",
"-761 508 CURVE",
"-759 508 OFFCURVE",
"-753 512 OFFCURVE",
"-746 515 CURVE",
"-735 524 LINE",
"-749 538 LINE",
"-771 560 OFFCURVE",
"-775 572 OFFCURVE",
"-767 590 CURVE",
"-762 602 OFFCURVE",
"-743 618 OFFCURVE",
"-725 628 CURVE",
"-705 639 OFFCURVE",
"-674 648 OFFCURVE",
"-656 651 CURVE",
"-642 653 OFFCURVE",
"-611 652 OFFCURVE",
"-606 648 CURVE",
"-605 647 OFFCURVE",
"-593 657 OFFCURVE",
"-575 675 CURVE",
"-541 707 OFFCURVE",
"-513 731 OFFCURVE",
"-507 731 CURVE",
"-503 731 OFFCURVE",
"-482 712 OFFCURVE",
"-480 706 CURVE",
"-479 699 OFFCURVE",
"-487 690 OFFCURVE",
"-525 662 CURVE",
"-543 647 OFFCURVE",
"-560 635 OFFCURVE",
"-561 634 CURVE",
"-563 633 OFFCURVE",
"-558 627 OFFCURVE",
"-552 618 CURVE",
"-543 606 OFFCURVE",
"-541 603 OFFCURVE",
"-541 594 CURVE",
"-541 569 OFFCURVE",
"-555 551 OFFCURVE",
"-583 538 CURVE",
"-617 521 OFFCURVE",
"-642 516 OFFCURVE",
"-686 516 CURVE",
"-701 516 OFFCURVE",
"-701 516 OFFCURVE",
"-713 506 CURVE",
"-719 498 OFFCURVE",
"-723 494 OFFCURVE",
"-723 492 CURVE",
"-723 491 OFFCURVE",
"-716 489 OFFCURVE",
"-707 485 CURVE",
"-681 477 OFFCURVE",
"-669 471 OFFCURVE",
"-668 466 CURVE",
"-667 460 OFFCURVE",
"-680 449 OFFCURVE",
"-689 449 CURVE",
"-693 449 OFFCURVE",
"-704 453 OFFCURVE",
"-714 458 CURVE",
"-744 471 OFFCURVE",
"-740 471 OFFCURVE",
"-755 455 CURVE",
"-769 440 OFFCURVE",
"-782 430 OFFCURVE",
"-789 430 CURVE",
"-792 430 OFFCURVE",
"-798 431 OFFCURVE",
"-803 434 CURVE"
);
},
{
closed = 1;
nodes = (
"-631 555 OFFCURVE",
"-621 563 OFFCURVE",
"-617 573 CURVE",
"-609 590 OFFCURVE",
"-614 602 OFFCURVE",
"-631 612 CURVE",
"-645 622 OFFCURVE",
"-655 622 OFFCURVE",
"-672 611 CURVE",
"-705 588 OFFCURVE",
"-709 568 OFFCURVE",
"-679 550 CURVE",
"-672 545 OFFCURVE",
"-665 542 OFFCURVE",
"-663 542 CURVE",
"-662 542 OFFCURVE",
"-656 544 OFFCURVE",
"-650 546 CURVE"
);
}
);
width = 0;
}
);
unicode = 0067;
},
{
glyphname = h;
lastChange = "2019-04-16 18:00:57 +0000";
layers = (
{
layerId = "C0F12C34-0F87-4A08-A93A-59AC8BF14692";
paths = (
{
closed = 1;
nodes = (
"-802 448 OFFCURVE",
"-832 483 OFFCURVE",
"-832 498 CURVE",
"-832 517 OFFCURVE",
"-820 537 OFFCURVE",
"-807 537 CURVE",
"-799 537 OFFCURVE",
"-787 525 OFFCURVE",
"-779 507 CURVE",
"-766 481 OFFCURVE",
"-753 483 OFFCURVE",
"-723 514 CURVE",
"-709 528 OFFCURVE",
"-697 543 OFFCURVE",
"-697 545 CURVE",
"-697 546 OFFCURVE",
"-700 552 OFFCURVE",
"-703 558 CURVE",
"-715 580 OFFCURVE",
"-720 610 OFFCURVE",
"-714 630 CURVE",
"-711 640 OFFCURVE",
"-697 655 OFFCURVE",
"-684 663 CURVE",
"-675 666 OFFCURVE",
"-671 667 OFFCURVE",
"-652 667 CURVE",
"-627 667 OFFCURVE",
"-617 664 OFFCURVE",
"-603 651 CURVE",
"-593 642 LINE",
"-552 684 LINE",
"-531 707 OFFCURVE",
"-511 725 OFFCURVE",
"-510 725 CURVE",
"-507 725 OFFCURVE",
"-492 712 OFFCURVE",
"-490 705 CURVE",
"-484 690 OFFCURVE",
"-485 684 OFFCURVE",
"-499 671 CURVE",
"-505 665 OFFCURVE",
"-523 651 OFFCURVE",
"-538 640 CURVE",
"-553 628 OFFCURVE",
"-567 618 OFFCURVE",
"-568 616 CURVE",
"-569 613 OFFCURVE",
"-567 609 OFFCURVE",
"-559 594 CURVE",
"-551 576 OFFCURVE",
"-550 574 OFFCURVE",
"-550 556 CURVE",
"-549 539 OFFCURVE",
"-549 535 OFFCURVE",
"-553 527 CURVE",
"-562 510 OFFCURVE",
"-586 496 OFFCURVE",
"-607 496 CURVE",
"-621 496 OFFCURVE",
"-648 502 OFFCURVE",
"-661 507 CURVE",
"-672 511 LINE",
"-676 507 LINE",
"-691 483 OFFCURVE",
"-718 459 OFFCURVE",
"-743 445 CURVE",
"-761 437 OFFCURVE",
"-769 436 OFFCURVE",
"-781 441 CURVE"
);
},
{
closed = 1;
nodes = (
"-611 561 OFFCURVE",
"-605 575 OFFCURVE",
"-605 593 CURVE",
"-605 610 OFFCURVE",
"-607 612 OFFCURVE",
"-627 612 CURVE",
"-642 612 OFFCURVE",
"-648 609 OFFCURVE",
"-655 594 CURVE",
"-663 577 OFFCURVE",
"-663 564 OFFCURVE",
"-654 556 CURVE",
"-648 550 OFFCURVE",
"-647 549 OFFCURVE",
"-637 550 CURVE",
"-631 551 OFFCURVE",
"-624 553 OFFCURVE",
"-621 556 CURVE"
);
}
);
width = 0;
}
);
unicode = 0068;
},
{
glyphname = i;
lastChange = "2019-04-16 18:00:57 +0000";
layers = (
{
layerId = "C0F12C34-0F87-4A08-A93A-59AC8BF14692";
paths = (
{
closed = 1;
nodes = (
"-641 448 OFFCURVE",
"-654 452 OFFCURVE",
"-659 457 CURVE",
"-681 469 OFFCURVE",
"-718 467 OFFCURVE",
"-742 451 CURVE",
"-752 444 OFFCURVE",
"-759 443 OFFCURVE",
"-764 448 CURVE",
"-768 452 OFFCURVE",
"-766 457 OFFCURVE",
"-747 474 CURVE",
"-724 493 OFFCURVE",
"-717 503 OFFCURVE",
"-714 525 CURVE",
"-713 532 OFFCURVE",
"-713 538 OFFCURVE",
"-713 538 CURVE",
"-714 540 OFFCURVE",
"-718 542 OFFCURVE",
"-724 542 CURVE",
"-731 543 OFFCURVE",
"-739 545 OFFCURVE",
"-744 549 CURVE",
"-757 553 OFFCURVE",
"-774 569 OFFCURVE",
"-781 580 CURVE",
"-784 588 OFFCURVE",
"-786 592 OFFCURVE",
"-784 603 CURVE",
"-783 627 OFFCURVE",
"-768 642 OFFCURVE",
"-731 655 CURVE",
"-706 662 LINE",
"-671 664 LINE",
"-664 664 OFFCURVE",
"-656 663 OFFCURVE",
"-651 662 CURVE",
"-634 656 OFFCURVE",
"-615 632 OFFCURVE",
"-613 611 CURVE",
"-613 602 OFFCURVE",
"-613 601 OFFCURVE",
"-621 588 CURVE",
"-632 572 OFFCURVE",
"-649 555 OFFCURVE",
"-666 549 CURVE",
"-681 542 LINE",
"-680 529 LINE",
"-679 508 OFFCURVE",
"-679 508 OFFCURVE",
"-663 505 CURVE",
"-647 502 OFFCURVE",
"-633 495 OFFCURVE",
"-621 485 CURVE",
"-608 474 OFFCURVE",
"-591 467 OFFCURVE",
"-577 467 CURVE",
"-569 467 OFFCURVE",
"-562 469 OFFCURVE",
"-549 474 CURVE",
"-536 483 OFFCURVE",
"-536 483 OFFCURVE",
"-531 478 CURVE",
"-527 474 OFFCURVE",
"-527 473 OFFCURVE",
"-530 467 CURVE",
"-536 458 OFFCURVE",
"-547 449 OFFCURVE",
"-558 444 CURVE",
"-574 439 OFFCURVE",
"-612 439 OFFCURVE",
"-633 444 CURVE"
);
},
{
closed = 1;
nodes = (
"-674 583 OFFCURVE",
"-666 597 OFFCURVE",
"-666 613 CURVE",
"-666 623 OFFCURVE",
"-667 624 OFFCURVE",
"-672 630 CURVE",
"-676 632 OFFCURVE",
"-683 636 OFFCURVE",
"-687 638 CURVE",
"-694 642 LINE",
"-705 636 LINE",
"-716 628 OFFCURVE",
"-723 623 OFFCURVE",
"-727 613 CURVE",
"-732 604 OFFCURVE",
"-732 595 OFFCURVE",
"-727 587 CURVE",
"-717 571 OFFCURVE",
"-701 567 OFFCURVE",
"-688 575 CURVE"
);
}
);
width = 0;
}
);
unicode = 0069;
},
{
glyphname = j;
lastChange = "2019-04-16 18:00:57 +0000";
layers = (
{
layerId = "C0F12C34-0F87-4A08-A93A-59AC8BF14692";
paths = (
{
closed = 1;
nodes = (
"-379 480 OFFCURVE",
"-383 482 OFFCURVE",
"-386 483 CURVE",
"-387 485 OFFCURVE",
"-387 487 OFFCURVE",
"-383 497 CURVE",
"-378 512 OFFCURVE",
"-378 516 OFFCURVE",
"-380 528 CURVE",
"-386 538 OFFCURVE",
"-394 546 OFFCURVE",
"-406 552 CURVE",
"-415 556 OFFCURVE",
"-450 562 OFFCURVE",
"-463 562 CURVE SMOOTH",
"-475 562 LINE",
"-475 556 LINE SMOOTH",
"-475 541 OFFCURVE",
"-482 529 OFFCURVE",
"-496 523 CURVE",
"-511 515 OFFCURVE",
"-528 521 OFFCURVE",
"-528 532 CURVE SMOOTH",
"-528 533 OFFCURVE",
"-527 541 OFFCURVE",
"-524 550 CURVE",
"-520 560 OFFCURVE",
"-518 568 OFFCURVE",
"-519 568 CURVE",
"-520 569 OFFCURVE",
"-588 573 OFFCURVE",
"-589 573 CURVE",
"-591 572 OFFCURVE",
"-592 568 OFFCURVE",
"-595 561 CURVE",
"-609 524 OFFCURVE",
"-632 492 OFFCURVE",
"-653 483 CURVE",
"-670 473 OFFCURVE",
"-694 480 OFFCURVE",
"-711 497 CURVE SMOOTH",
"-723 509 OFFCURVE",
"-729 522 OFFCURVE",
"-729 545 CURVE SMOOTH",
"-729 555 OFFCURVE",
"-731 562 OFFCURVE",
"-734 568 CURVE",
"-735 573 LINE",
"-752 573 LINE SMOOTH",
"-760 573 OFFCURVE",
"-815 572 OFFCURVE",
"-872 570 CURVE SMOOTH",
"-1022 565 OFFCURVE",
"-1018 565 OFFCURVE",
"-1020 569 CURVE",
"-1024 572 OFFCURVE",
"-1021 580 OFFCURVE",
"-1013 582 CURVE",
"-1002 589 OFFCURVE",
"-987 590 OFFCURVE",
"-915 591 CURVE",
"-872 593 OFFCURVE",
"-839 595 OFFCURVE",
"-825 595 CURVE",
"-812 598 OFFCURVE",
"-787 599 OFFCURVE",
"-769 601 CURVE",
"-735 602 LINE",
"-729 605 LINE",
"-723 610 OFFCURVE",
"-720 615 OFFCURVE",
"-713 629 CURVE SMOOTH",
"-706 645 OFFCURVE",
"-702 650 OFFCURVE",
"-692 661 CURVE",
"-685 667 OFFCURVE",
"-674 676 OFFCURVE",
"-670 678 CURVE",
"-663 685 OFFCURVE",
"-658 685 OFFCURVE",
"-648 686 CURVE",
"-640 686 OFFCURVE",
"-633 686 OFFCURVE",
"-629 684 CURVE SMOOTH",
"-620 679 OFFCURVE",
"-608 668 OFFCURVE",
"-602 657 CURVE",
"-597 647 OFFCURVE",
"-590 625 OFFCURVE",
"-588 611 CURVE",
"-588 603 LINE",
"-563 603 LINE SMOOTH",
"-551 603 OFFCURVE",
"-535 602 OFFCURVE",
"-527 601 CURVE",
"-515 599 LINE",
"-516 615 LINE SMOOTH",
"-517 630 OFFCURVE",
"-517 630 OFFCURVE",
"-512 635 CURVE",
"-506 642 OFFCURVE",
"-501 644 OFFCURVE",
"-493 644 CURVE SMOOTH",
"-486 644 OFFCURVE",
"-484 643 OFFCURVE",
"-480 636 CURVE",
"-472 630 LINE",
"-472 598 LINE",
"-468 595 LINE",
"-460 593 OFFCURVE",
"-426 586 OFFCURVE",
"-399 582 CURVE SMOOTH",
"-385 580 OFFCURVE",
"-374 578 OFFCURVE",
"-354 569 CURVE",
"-325 558 OFFCURVE",
"-316 555 OFFCURVE",
"-305 545 CURVE SMOOTH",
"-292 533 OFFCURVE",
"-289 526 OFFCURVE",
"-289 514 CURVE SMOOTH",
"-289 502 OFFCURVE",
"-289 502 OFFCURVE",
"-297 491 CURVE",
"-312 473 OFFCURVE",
"-312 473 OFFCURVE",
"-343 473 CURVE SMOOTH",
"-365 473 OFFCURVE",
"-373 474 OFFCURVE",
"-377 476 CURVE"
);
},
{
closed = 1;
nodes = (
"-651 540 OFFCURVE",
"-641 558 OFFCURVE",
"-641 569 CURVE",
"-640 577 LINE",
"-687 577 LINE",
"-688 570 LINE SMOOTH",
"-689 562 OFFCURVE",
"-688 548 OFFCURVE",
"-688 544 CURVE",
"-686 537 OFFCURVE",
"-675 530 OFFCURVE",
"-669 530 CURVE SMOOTH",
"-664 530 OFFCURVE",
"-660 533 OFFCURVE",
"-657 534 CURVE"
);
},
{
closed = 1;
nodes = (
"-633 620 OFFCURVE",
"-637 635 OFFCURVE",
"-646 640 CURVE",
"-653 645 OFFCURVE",
"-657 645 OFFCURVE",
"-669 638 CURVE",
"-678 634 OFFCURVE",
"-685 626 OFFCURVE",
"-685 615 CURVE",
"-687 602 OFFCURVE",
"-687 603 OFFCURVE",
"-662 603 CURVE SMOOTH",
"-638 603 LINE",
"-636 609 LINE"
);
}
);
width = 0;
}
);
unicode = 006A;
},
{
glyphname = k;
lastChange = "2019-04-16 18:00:57 +0000";
layers = (
{
layerId = "C0F12C34-0F87-4A08-A93A-59AC8BF14692";
paths = (
{
closed = 1;
nodes = (
"-797 453 OFFCURVE",
"-827 487 OFFCURVE",
"-827 503 CURVE",
"-827 522 OFFCURVE",
"-815 541 OFFCURVE",
"-801 541 CURVE",
"-794 541 OFFCURVE",
"-782 529 OFFCURVE",
"-774 511 CURVE",
"-761 486 OFFCURVE",
"-747 487 OFFCURVE",
"-717 519 CURVE",
"-704 533 OFFCURVE",
"-692 547 OFFCURVE",
"-692 550 CURVE",
"-692 551 OFFCURVE",
"-695 557 OFFCURVE",
"-698 563 CURVE",
"-710 585 OFFCURVE",
"-715 615 OFFCURVE",
"-709 635 CURVE",
"-705 645 OFFCURVE",
"-692 660 OFFCURVE",
"-679 667 CURVE",
"-669 671 OFFCURVE",
"-666 672 OFFCURVE",
"-647 672 CURVE",
"-621 672 OFFCURVE",
"-612 669 OFFCURVE",
"-597 655 CURVE",
"-588 647 LINE",
"-571 627 LINE",
"-554 599 LINE",
"-546 581 OFFCURVE",
"-545 579 OFFCURVE",
"-545 561 CURVE",
"-543 544 OFFCURVE",
"-543 540 OFFCURVE",
"-548 532 CURVE",
"-557 515 OFFCURVE",
"-581 501 OFFCURVE",
"-602 501 CURVE",
"-615 501 OFFCURVE",
"-643 507 OFFCURVE",
"-656 511 CURVE",
"-667 516 LINE",
"-671 511 LINE",
"-686 487 OFFCURVE",
"-713 463 OFFCURVE",
"-738 450 CURVE",
"-756 442 OFFCURVE",
"-764 441 OFFCURVE",
"-776 445 CURVE"
);
},
{
closed = 1;
nodes = (
"-606 565 OFFCURVE",
"-600 580 OFFCURVE",
"-600 598 CURVE",
"-600 615 OFFCURVE",
"-602 617 OFFCURVE",
"-621 617 CURVE",
"-637 617 OFFCURVE",
"-643 613 OFFCURVE",
"-650 599 CURVE",
"-657 582 OFFCURVE",
"-657 569 OFFCURVE",
"-649 561 CURVE",
"-643 555 OFFCURVE",
"-642 553 OFFCURVE",
"-632 555 CURVE",
"-626 556 OFFCURVE",
"-619 558 OFFCURVE",
"-615 561 CURVE"
);
}
);
width = 0;
}
);
unicode = 006B;
},
{
glyphname = q;
lastChange = "2019-04-16 18:00:57 +0000";
layers = (
{
layerId = "C0F12C34-0F87-4A08-A93A-59AC8BF14692";
paths = (
{
closed = 1;
nodes = (
"-679 460 LINE",
"-678 492 LINE",
"-677 509 OFFCURVE",
"-676 529 OFFCURVE",
"-676 536 CURVE",
"-675 548 LINE",
"-686 552 LINE",
"-700 557 OFFCURVE",
"-718 568 OFFCURVE",
"-725 578 CURVE",
"-737 592 OFFCURVE",
"-742 606 OFFCURVE",
"-742 626 CURVE",
"-742 636 OFFCURVE",
"-742 639 OFFCURVE",
"-738 647 CURVE",
"-725 675 OFFCURVE",
"-674 707 OFFCURVE",
"-642 707 CURVE",
"-619 707 OFFCURVE",
"-590 687 OFFCURVE",
"-580 665 CURVE",
"-572 648 OFFCURVE",
"-571 621 OFFCURVE",
"-578 606 CURVE",
"-586 589 OFFCURVE",
"-607 571 OFFCURVE",
"-635 557 CURVE",
"-647 552 LINE",
"-646 545 LINE",
"-646 538 OFFCURVE",
"-641 473 OFFCURVE",
"-641 470 CURVE",
"-641 469 OFFCURVE",
"-665 453 OFFCURVE",
"-667 453 CURVE",
"-668 453 OFFCURVE",
"-671 455 OFFCURVE",
"-673 456 CURVE"
);
},
{
closed = 1;
nodes = (
"-635 595 OFFCURVE",
"-623 620 OFFCURVE",
"-629 646 CURVE",
"-632 664 OFFCURVE",
"-642 674 OFFCURVE",
"-654 674 CURVE",
"-658 674 OFFCURVE",
"-662 673 OFFCURVE",
"-664 672 CURVE",
"-669 669 OFFCURVE",
"-675 658 OFFCURVE",
"-683 644 CURVE",
"-688 633 OFFCURVE",
"-689 630 OFFCURVE",
"-689 621 CURVE",
"-689 614 OFFCURVE",
"-688 609 OFFCURVE",
"-686 604 CURVE",
"-681 594 OFFCURVE",
"-671 582 OFFCURVE",
"-668 582 CURVE",
"-666 582 OFFCURVE",
"-662 583 OFFCURVE",
"-658 585 CURVE"
);
}
);
width = 0;
}
);
unicode = 0071;
},
{
glyphname = s;
lastChange = "2019-04-16 18:00:57 +0000";
layers = (
{
layerId = "C0F12C34-0F87-4A08-A93A-59AC8BF14692";
paths = (
{
closed = 1;
nodes = (
"-719 267 OFFCURVE",
"-667 303 OFFCURVE",
"-631 318 CURVE",
"-597 334 OFFCURVE",
"-593 335 OFFCURVE",
"-562 330 CURVE SMOOTH",
"-519 323 OFFCURVE",
"-457 330 OFFCURVE",
"-434 343 CURVE SMOOTH",
"-405 359 OFFCURVE",
"-393 385 OFFCURVE",
"-393 418 CURVE SMOOTH",
"-393 445 LINE",
"-335 468 LINE SMOOTH",
"-267 495 OFFCURVE",
"-215 526 OFFCURVE",
"-213 538 CURVE",
"-207 566 OFFCURVE",
"-237 584 OFFCURVE",
"-258 569 CURVE SMOOTH",
"-291 546 OFFCURVE",
"-360 500 OFFCURVE",
"-382 490 CURVE",
"-400 481 OFFCURVE",
"-413 477 OFFCURVE",
"-433 479 CURVE",
"-447 481 OFFCURVE",
"-484 482 OFFCURVE",
"-513 482 CURVE SMOOTH",
"-556 482 OFFCURVE",
"-571 481 OFFCURVE",
"-583 472 CURVE",
"-609 457 OFFCURVE",
"-621 433 OFFCURVE",
"-622 397 CURVE SMOOTH",
"-623 365 LINE",
"-676 342 LINE SMOOTH",
"-742 313 OFFCURVE",
"-762 304 OFFCURVE",
"-783 286 CURVE",
"-804 273 OFFCURVE",
"-805 265 OFFCURVE",
"-791 246 CURVE",
"-777 229 OFFCURVE",
"-770 229 OFFCURVE",
"-750 244 CURVE SMOOTH"
);
},
{
closed = 1;
nodes = (
"-573 395 OFFCURVE",
"-572 412 OFFCURVE",
"-554 432 CURVE SMOOTH",
"-541 447 OFFCURVE",
"-535 449 OFFCURVE",
"-512 449 CURVE SMOOTH",
"-477 449 OFFCURVE",
"-457 436 OFFCURVE",
"-459 413 CURVE",
"-459 402 OFFCURVE",
"-466 393 OFFCURVE",
"-475 386 CURVE SMOOTH",
"-496 370 OFFCURVE",
"-548 367 OFFCURVE",
"-562 381 CURVE"
);
}
);
width = 0;
}
);
unicode = 0073;
},
{
glyphname = t;
lastChange = "2019-04-16 18:00:57 +0000";
layers = (
{
layerId = "C0F12C34-0F87-4A08-A93A-59AC8BF14692";
paths = (
{
closed = 1;
nodes = (
"-706 480 OFFCURVE",
"-715 487 OFFCURVE",
"-723 499 CURVE",
"-735 518 OFFCURVE",
"-737 530 OFFCURVE",
"-730 549 CURVE",
"-725 564 OFFCURVE",
"-707 582 OFFCURVE",
"-687 593 CURVE",
"-672 601 LINE",
"-671 611 LINE",
"-670 617 OFFCURVE",
"-671 630 OFFCURVE",
"-672 641 CURVE",
"-677 680 OFFCURVE",
"-677 680 OFFCURVE",
"-672 687 CURVE",
"-668 693 OFFCURVE",
"-667 693 OFFCURVE",
"-657 694 CURVE",
"-648 694 OFFCURVE",
"-646 694 OFFCURVE",
"-643 690 CURVE",
"-639 683 OFFCURVE",
"-639 647 OFFCURVE",
"-645 612 CURVE",
"-646 606 OFFCURVE",
"-646 606 OFFCURVE",
"-637 605 CURVE",
"-611 601 OFFCURVE",
"-592 585 OFFCURVE",
"-584 557 CURVE",
"-576 533 OFFCURVE",
"-581 517 OFFCURVE",
"-602 496 CURVE",
"-612 487 OFFCURVE",
"-618 483 OFFCURVE",
"-630 477 CURVE",
"-645 471 OFFCURVE",
"-666 465 OFFCURVE",
"-675 465 CURVE",
"-678 465 OFFCURVE",
"-684 467 OFFCURVE",
"-689 470 CURVE"
);
},
{
closed = 1;
nodes = (
"-643 509 OFFCURVE",
"-637 517 OFFCURVE",
"-634 528 CURVE",
"-630 540 OFFCURVE",
"-630 553 OFFCURVE",
"-635 562 CURVE",
"-638 569 OFFCURVE",
"-640 570 OFFCURVE",
"-646 572 CURVE",
"-652 574 OFFCURVE",
"-654 574 OFFCURVE",
"-659 571 CURVE",
"-674 561 OFFCURVE",
"-685 544 OFFCURVE",
"-685 530 CURVE",
"-685 522 OFFCURVE",
"-680 511 OFFCURVE",
"-672 503 CURVE",
"-665 496 OFFCURVE",
"-662 495 OFFCURVE",
"-652 502 CURVE"
);
}
);
width = 0;
}
);
unicode = 0074;
},
{
glyphname = u;
lastChange = "2019-04-16 18:00:57 +0000";
layers = (
{
layerId = "C0F12C34-0F87-4A08-A93A-59AC8BF14692";
paths = (
{
closed = 1;
nodes = (
"-641 438 OFFCURVE",
"-654 443 OFFCURVE",
"-659 447 CURVE",
"-681 460 OFFCURVE",
"-718 459 OFFCURVE",
"-742 442 CURVE",
"-752 435 OFFCURVE",
"-759 434 OFFCURVE",
"-764 438 CURVE",
"-768 443 OFFCURVE",
"-766 447 OFFCURVE",
"-747 464 CURVE",
"-724 484 OFFCURVE",
"-717 494 OFFCURVE",
"-714 515 CURVE",
"-713 522 OFFCURVE",
"-713 529 OFFCURVE",
"-713 529 CURVE",
"-714 530 OFFCURVE",
"-718 531 OFFCURVE",
"-724 531 CURVE",
"-731 534 OFFCURVE",
"-739 536 OFFCURVE",
"-744 538 CURVE",
"-757 544 OFFCURVE",
"-774 560 OFFCURVE",
"-781 571 CURVE",
"-784 579 OFFCURVE",
"-786 582 OFFCURVE",
"-784 594 CURVE",
"-783 617 OFFCURVE",
"-768 632 OFFCURVE",
"-731 646 CURVE",
"-710 654 OFFCURVE",
"-713 648 OFFCURVE",
"-715 690 CURVE",
"-717 714 LINE",
"-710 721 LINE",
"-702 727 OFFCURVE",
"-688 732 OFFCURVE",
"-683 727 CURVE",
"-680 726 OFFCURVE",
"-680 718 OFFCURVE",
"-681 690 CURVE",
"-681 655 LINE",
"-671 655 LINE",
"-664 655 OFFCURVE",
"-656 654 OFFCURVE",
"-651 653 CURVE",
"-634 647 OFFCURVE",
"-615 623 OFFCURVE",
"-613 602 CURVE",
"-613 592 OFFCURVE",
"-613 590 OFFCURVE",
"-621 579 CURVE",
"-632 563 OFFCURVE",
"-649 547 OFFCURVE",
"-666 538 CURVE",
"-681 531 LINE",
"-680 520 LINE",
"-679 498 OFFCURVE",
"-679 498 OFFCURVE",
"-663 496 CURVE",
"-647 493 OFFCURVE",
"-633 486 OFFCURVE",
"-621 476 CURVE",
"-608 464 OFFCURVE",
"-591 459 OFFCURVE",
"-577 459 CURVE",
"-569 459 OFFCURVE",
"-562 460 OFFCURVE",
"-549 464 CURVE",
"-536 472 OFFCURVE",
"-536 472 OFFCURVE",
"-531 469 CURVE",
"-527 464 OFFCURVE",
"-527 463 OFFCURVE",
"-530 459 CURVE",
"-536 449 OFFCURVE",
"-547 439 OFFCURVE",
"-558 435 CURVE",
"-574 428 OFFCURVE",
"-612 428 OFFCURVE",
"-633 435 CURVE"
);
},
{
closed = 1;
nodes = (
"-674 573 OFFCURVE",
"-666 588 OFFCURVE",
"-666 604 CURVE",
"-666 614 OFFCURVE",
"-667 615 OFFCURVE",
"-672 621 CURVE",
"-676 623 OFFCURVE",
"-683 628 OFFCURVE",
"-687 629 CURVE",
"-694 632 LINE",
"-705 628 LINE",
"-716 619 OFFCURVE",
"-723 614 OFFCURVE",
"-727 604 CURVE",
"-732 595 OFFCURVE",
"-732 586 OFFCURVE",
"-727 578 CURVE",
"-717 562 OFFCURVE",
"-701 557 OFFCURVE",
"-688 565 CURVE"
);
}
);
width = 0;
}
);
unicode = 0075;
},
{
glyphname = w;
lastChange = "2019-04-16 18:00:57 +0000";
layers = (
{
layerId = "C0F12C34-0F87-4A08-A93A-59AC8BF14692";
paths = (
{
closed = 1;
nodes = (
"-638 402 OFFCURVE",
"-643 409 OFFCURVE",
"-643 423 CURVE",
"-643 429 OFFCURVE",
"-642 432 OFFCURVE",
"-638 436 CURVE",
"-633 441 OFFCURVE",
"-632 448 OFFCURVE",
"-638 451 CURVE",
"-640 452 OFFCURVE",
"-649 453 OFFCURVE",
"-657 455 CURVE",
"-672 457 OFFCURVE",
"-676 456 OFFCURVE",
"-696 452 CURVE",
"-715 447 OFFCURVE",
"-721 447 OFFCURVE",
"-734 448 CURVE",
"-760 450 OFFCURVE",
"-768 454 OFFCURVE",
"-768 466 CURVE",
"-768 482 OFFCURVE",
"-740 515 OFFCURVE",
"-698 546 CURVE",
"-680 560 OFFCURVE",
"-680 560 OFFCURVE",
"-686 561 CURVE",
"-689 561 OFFCURVE",
"-698 560 OFFCURVE",
"-705 559 CURVE",
"-712 557 OFFCURVE",
"-726 555 OFFCURVE",
"-735 554 CURVE",
"-765 553 OFFCURVE",
"-768 562 OFFCURVE",
"-746 589 CURVE",
"-737 599 OFFCURVE",
"-724 609 OFFCURVE",
"-700 624 CURVE",
"-688 630 OFFCURVE",
"-675 637 OFFCURVE",
"-671 640 CURVE",
"-666 643 OFFCURVE",
"-659 648 OFFCURVE",
"-656 649 CURVE",
"-650 652 LINE",
"-669 654 LINE",
"-714 657 OFFCURVE",
"-737 667 OFFCURVE",
"-737 683 CURVE",
"-737 690 OFFCURVE",
"-731 695 OFFCURVE",
"-712 709 CURVE",
"-664 745 OFFCURVE",
"-619 764 OFFCURVE",
"-584 767 CURVE",
"-566 767 LINE",
"-560 760 LINE",
"-552 753 OFFCURVE",
"-552 752 OFFCURVE",
"-557 745 CURVE",
"-563 738 OFFCURVE",
"-575 732 OFFCURVE",
"-602 724 CURVE",
"-634 714 OFFCURVE",
"-656 705 OFFCURVE",
"-669 695 CURVE",
"-681 687 OFFCURVE",
"-682 688 OFFCURVE",
"-648 683 CURVE",
"-613 679 OFFCURVE",
"-608 677 OFFCURVE",
"-603 670 CURVE",
"-592 657 OFFCURVE",
"-606 643 OFFCURVE",
"-654 615 CURVE",
"-675 603 LINE",
"-646 602 LINE",
"-616 602 OFFCURVE",
"-616 602 OFFCURVE",
"-611 597 CURVE",
"-598 585 OFFCURVE",
"-607 572 OFFCURVE",
"-646 546 CURVE",
"-681 523 OFFCURVE",
"-692 513 OFFCURVE",
"-703 501 CURVE",
"-708 494 OFFCURVE",
"-712 488 OFFCURVE",
"-712 487 CURVE",
"-711 486 OFFCURVE",
"-694 485 OFFCURVE",
"-671 486 CURVE",
"-628 487 OFFCURVE",
"-618 486 OFFCURVE",
"-599 479 CURVE",
"-578 471 OFFCURVE",
"-566 456 OFFCURVE",
"-566 434 CURVE",
"-566 422 OFFCURVE",
"-566 421 OFFCURVE",
"-574 412 CURVE",
"-581 404 OFFCURVE",
"-582 403 OFFCURVE",
"-595 400 CURVE",
"-609 397 OFFCURVE",
"-621 396 OFFCURVE",
"-626 398 CURVE"
);
}
);
width = 0;
}
);
unicode = 0077;
},
{
glyphname = y;
lastChange = "2019-04-16 18:00:57 +0000";
layers = (
{
layerId = "C0F12C34-0F87-4A08-A93A-59AC8BF14692";
paths = (
{
closed = 1;
nodes = (
"-622 417 OFFCURVE",
"-626 423 OFFCURVE",
"-628 432 CURVE",
"-628 438 OFFCURVE",
"-628 440 OFFCURVE",
"-624 445 CURVE",
"-614 457 OFFCURVE",
"-619 461 OFFCURVE",
"-646 461 CURVE",
"-662 461 OFFCURVE",
"-671 460 OFFCURVE",
"-695 454 CURVE",
"-705 452 OFFCURVE",
"-714 451 OFFCURVE",
"-727 451 CURVE",
"-756 451 OFFCURVE",
"-761 453 OFFCURVE",
"-759 466 CURVE",
"-757 484 OFFCURVE",
"-734 511 OFFCURVE",
"-693 548 CURVE",
"-681 558 OFFCURVE",
"-676 563 OFFCURVE",
"-677 563 CURVE",
"-680 563 OFFCURVE",
"-691 561 OFFCURVE",
"-705 556 CURVE",
"-730 549 OFFCURVE",
"-750 548 OFFCURVE",
"-757 550 CURVE",
"-764 555 OFFCURVE",
"-760 567 OFFCURVE",
"-743 585 CURVE",
"-735 594 OFFCURVE",
"-723 604 OFFCURVE",
"-693 624 CURVE",
"-654 650 LINE",
"-684 650 LINE",
"-708 650 OFFCURVE",
"-717 650 OFFCURVE",
"-725 653 CURVE",
"-746 659 OFFCURVE",
"-749 674 OFFCURVE",
"-735 687 CURVE",
"-720 699 OFFCURVE",
"-695 718 OFFCURVE",
"-676 731 CURVE",
"-654 743 OFFCURVE",
"-654 742 OFFCURVE",
"-679 750 CURVE",
"-693 753 OFFCURVE",
"-703 760 OFFCURVE",
"-703 763 CURVE",
"-703 767 OFFCURVE",
"-681 778 OFFCURVE",
"-675 778 CURVE",
"-672 778 OFFCURVE",
"-661 774 OFFCURVE",
"-650 769 CURVE",
"-639 763 OFFCURVE",
"-629 760 OFFCURVE",
"-628 760 CURVE",
"-626 760 OFFCURVE",
"-617 764 OFFCURVE",
"-608 769 CURVE",
"-588 781 OFFCURVE",
"-582 782 OFFCURVE",
"-570 775 CURVE",
"-558 770 OFFCURVE",
"-556 769 OFFCURVE",
"-566 760 CURVE",
"-572 756 OFFCURVE",
"-578 751 OFFCURVE",
"-583 748 CURVE",
"-587 746 OFFCURVE",
"-589 742 OFFCURVE",
"-589 742 CURVE",
"-589 741 OFFCURVE",
"-586 739 OFFCURVE",
"-582 738 CURVE",
"-569 732 OFFCURVE",
"-540 718 OFFCURVE",
"-540 718 CURVE",
"-540 716 OFFCURVE",
"-544 709 OFFCURVE",
"-548 705 CURVE",
"-551 702 OFFCURVE",
"-553 702 OFFCURVE",
"-560 702 CURVE",
"-569 702 OFFCURVE",
"-574 703 OFFCURVE",
"-595 713 CURVE",
"-620 724 LINE",
"-649 706 LINE",
"-666 694 OFFCURVE",
"-681 686 OFFCURVE",
"-683 684 CURVE",
"-685 682 OFFCURVE",
"-682 681 OFFCURVE",
"-651 680 CURVE",
"-617 680 OFFCURVE",
"-616 680 OFFCURVE",
"-608 675 CURVE",
"-604 672 OFFCURVE",
"-600 669 OFFCURVE",
"-600 668 CURVE",
"-595 657 OFFCURVE",
"-616 637 OFFCURVE",
"-666 606 CURVE",
"-676 599 LINE",
"-660 602 LINE",
"-650 602 OFFCURVE",
"-636 603 OFFCURVE",
"-627 604 CURVE",
"-610 605 OFFCURVE",
"-610 605 OFFCURVE",
"-606 599 CURVE",
"-602 596 OFFCURVE",
"-602 594 OFFCURVE",
"-602 588 CURVE",
"-603 580 OFFCURVE",
"-610 571 OFFCURVE",
"-625 562 CURVE",
"-631 556 OFFCURVE",
"-649 543 OFFCURVE",
"-663 532 CURVE",
"-691 509 OFFCURVE",
"-706 490 OFFCURVE",
"-704 487 CURVE",
"-702 487 OFFCURVE",
"-694 487 OFFCURVE",
"-679 489 CURVE",
"-598 504 OFFCURVE",
"-548 487 OFFCURVE",
"-548 446 CURVE",
"-547 438 OFFCURVE",
"-548 438 OFFCURVE",
"-555 429 CURVE",
"-563 422 OFFCURVE",
"-566 420 OFFCURVE",
"-577 416 CURVE",
"-595 411 OFFCURVE",
"-607 410 OFFCURVE",
"-615 413 CURVE"
);
}
);
width = 0;
}
);
unicode = 0079;
},
{
glyphname = one;
lastChange = "2019-04-16 18:00:57 +0000";
layers = (
{
layerId = "C0F12C34-0F87-4A08-A93A-59AC8BF14692";
paths = (
{
closed = 1;
nodes = (
"-1078 260 OFFCURVE",
"-1088 270 OFFCURVE",
"-1094 283 CURVE",
"-1099 293 OFFCURVE",
"-1101 312 OFFCURVE",
"-1099 343 CURVE",
"-1099 369 LINE",
"-1110 369 LINE",
"-1121 369 LINE",
"-1122 359 LINE",
"-1122 355 OFFCURVE",
"-1123 339 OFFCURVE",
"-1124 323 CURVE",
"-1124 294 OFFCURVE",
"-1125 286 OFFCURVE",
"-1130 276 CURVE",
"-1135 267 OFFCURVE",
"-1139 265 OFFCURVE",
"-1155 264 CURVE",
"-1168 263 OFFCURVE",
"-1170 264 OFFCURVE",
"-1172 265 CURVE",
"-1172 267 OFFCURVE",
"-1170 278 OFFCURVE",
"-1166 289 CURVE",
"-1161 314 OFFCURVE",
"-1155 348 OFFCURVE",
"-1155 357 CURVE",
"-1155 368 OFFCURVE",
"-1157 369 OFFCURVE",
"-1182 369 CURVE",
"-1204 369 LINE",
"-1204 366 LINE",
"-1204 359 OFFCURVE",
"-1206 357 OFFCURVE",
"-1217 358 CURVE",
"-1230 359 OFFCURVE",
"-1233 361 OFFCURVE",
"-1233 370 CURVE",
"-1233 378 OFFCURVE",
"-1230 384 OFFCURVE",
"-1226 388 CURVE",
"-1223 391 LINE",
"-1117 391 LINE",
"-996 391 OFFCURVE",
"-1005 392 OFFCURVE",
"-1004 381 CURVE",
"-1003 376 OFFCURVE",
"-1004 374 OFFCURVE",
"-1006 372 CURVE",
"-1009 369 OFFCURVE",
"-1011 369 OFFCURVE",
"-1031 368 CURVE",
"-1053 368 LINE",
"-1055 354 LINE",
"-1056 327 OFFCURVE",
"-1052 298 OFFCURVE",
"-1043 276 CURVE",
"-1037 263 OFFCURVE",
"-1038 260 OFFCURVE",
"-1045 256 CURVE",
"-1052 253 OFFCURVE",
"-1055 252 OFFCURVE",
"-1062 254 CURVE"
);
}
);
width = 0;
}
);
unicode = 0031;
},
{
glyphname = two;
lastChange = "2019-04-16 18:00:57 +0000";
layers = (
{
layerId = "C0F12C34-0F87-4A08-A93A-59AC8BF14692";
paths = (
{
closed = 1;
nodes = (
"-1081 222 OFFCURVE",
"-1072 225 OFFCURVE",
"-1067 230 CURVE",
"-1062 235 OFFCURVE",
"-1058 244 OFFCURVE",
"-1056 251 CURVE",
"-1054 262 OFFCURVE",
"-1054 265 OFFCURVE",
"-1062 284 CURVE",
"-1070 301 OFFCURVE",
"-1070 302 OFFCURVE",
"-1078 309 CURVE",
"-1083 312 OFFCURVE",
"-1092 320 OFFCURVE",
"-1098 325 CURVE",
"-1105 330 OFFCURVE",
"-1110 335 OFFCURVE",
"-1110 336 CURVE",
"-1110 337 OFFCURVE",
"-1098 339 OFFCURVE",
"-1083 341 CURVE",
"-1066 343 OFFCURVE",
"-1056 353 OFFCURVE",
"-1051 372 CURVE",
"-1047 391 OFFCURVE",
"-1054 406 OFFCURVE",
"-1070 414 CURVE",
"-1096 427 OFFCURVE",
"-1123 423 OFFCURVE",
"-1139 406 CURVE",
"-1146 400 OFFCURVE",
"-1154 387 OFFCURVE",
"-1157 376 CURVE",
"-1158 373 OFFCURVE",
"-1159 369 OFFCURVE",
"-1161 369 CURVE",
"-1161 368 OFFCURVE",
"-1165 366 OFFCURVE",
"-1169 365 CURVE",
"-1179 362 OFFCURVE",
"-1181 360 OFFCURVE",
"-1181 354 CURVE",
"-1181 352 OFFCURVE",
"-1180 349 OFFCURVE",
"-1179 347 CURVE",
"-1177 343 OFFCURVE",
"-1170 338 OFFCURVE",
"-1163 336 CURVE",
"-1158 334 OFFCURVE",
"-1157 333 OFFCURVE",
"-1158 332 CURVE",
"-1159 331 OFFCURVE",
"-1159 323 OFFCURVE",
"-1159 305 CURVE",
"-1159 283 OFFCURVE",
"-1159 278 OFFCURVE",
"-1157 262 CURVE",
"-1154 244 OFFCURVE",
"-1150 235 OFFCURVE",
"-1144 225 CURVE",
"-1137 216 OFFCURVE",
"-1136 216 OFFCURVE",
"-1119 216 CURVE",
"-1108 216 OFFCURVE",
"-1103 216 OFFCURVE",
"-1094 218 CURVE"
);
},
{
closed = 1;
nodes = (
"-1121 257 OFFCURVE",
"-1122 260 OFFCURVE",
"-1122 262 CURVE",
"-1123 269 OFFCURVE",
"-1123 300 OFFCURVE",
"-1122 302 CURVE",
"-1120 303 OFFCURVE",
"-1116 300 OFFCURVE",
"-1110 295 CURVE",
"-1101 287 OFFCURVE",
"-1098 280 OFFCURVE",
"-1098 267 CURVE",
"-1097 258 OFFCURVE",
"-1097 257 OFFCURVE",
"-1099 255 CURVE",
"-1101 253 OFFCURVE",
"-1103 253 OFFCURVE",
"-1109 253 CURVE",
"-1117 253 OFFCURVE",
"-1117 253 OFFCURVE",
"-1119 255 CURVE"
);
},
{
closed = 1;
nodes = (
"-1145 367 OFFCURVE",
"-1144 371 OFFCURVE",
"-1141 374 CURVE",
"-1136 378 OFFCURVE",
"-1134 382 OFFCURVE",
"-1118 387 CURVE",
"-1107 390 OFFCURVE",
"-1103 391 OFFCURVE",
"-1096 391 CURVE",
"-1088 391 OFFCURVE",
"-1088 391 OFFCURVE",
"-1085 388 CURVE",
"-1081 383 OFFCURVE",
"-1080 380 OFFCURVE",
"-1083 377 CURVE",
"-1085 372 OFFCURVE",
"-1094 368 OFFCURVE",
"-1105 366 CURVE",
"-1114 365 OFFCURVE",
"-1142 364 OFFCURVE",
"-1143 365 CURVE"
);
}
);
width = 0;
}
);
unicode = 0032;
},
{
glyphname = three;
lastChange = "2019-04-16 18:00:57 +0000";
layers = (
{
layerId = "C0F12C34-0F87-4A08-A93A-59AC8BF14692";
paths = (
{
closed = 1;
nodes = (
"-1162 240 OFFCURVE",
"-1169 241 OFFCURVE",
"-1171 244 CURVE",
"-1173 247 OFFCURVE",
"-1174 264 OFFCURVE",
"-1175 313 CURVE",
"-1175 376 OFFCURVE",
"-1176 377 OFFCURVE",
"-1182 384 CURVE",
"-1187 390 OFFCURVE",
"-1189 398 OFFCURVE",
"-1184 405 CURVE",
"-1182 407 OFFCURVE",
"-1175 407 OFFCURVE",
"-1138 407 CURVE",
"-1115 405 OFFCURVE",
"-1086 405 OFFCURVE",
"-1075 405 CURVE",
"-1058 404 OFFCURVE",
"-1053 404 OFFCURVE",
"-1048 398 CURVE",
"-1045 396 OFFCURVE",
"-1042 390 OFFCURVE",
"-1042 386 CURVE",
"-1040 380 OFFCURVE",
"-1040 378 OFFCURVE",
"-1048 375 CURVE",
"-1054 370 OFFCURVE",
"-1060 370 OFFCURVE",
"-1091 372 CURVE",
"-1126 373 LINE",
"-1125 309 LINE",
"-1122 241 OFFCURVE",
"-1123 238 OFFCURVE",
"-1133 238 CURVE",
"-1135 239 OFFCURVE",
"-1143 239 OFFCURVE",
"-1151 239 CURVE"
);
}
);
width = 0;
}
);
unicode = 0033;
},
{
glyphname = four;
lastChange = "2019-04-16 18:00:57 +0000";
layers = (
{
layerId = "C0F12C34-0F87-4A08-A93A-59AC8BF14692";
paths = (
{
closed = 1;
nodes = (
"-1207 250 OFFCURVE",
"-1208 253 OFFCURVE",
"-1202 258 CURVE",
"-1199 260 OFFCURVE",
"-1196 261 OFFCURVE",
"-1180 262 CURVE",
"-1162 262 LINE",
"-1133 334 LINE",
"-1118 373 OFFCURVE",
"-1104 407 OFFCURVE",
"-1103 409 CURVE",
"-1101 412 OFFCURVE",
"-1099 413 OFFCURVE",
"-1096 413 CURVE",
"-1091 413 OFFCURVE",
"-1090 412 OFFCURVE",
"-1086 405 CURVE",
"-1084 400 OFFCURVE",
"-1076 379 OFFCURVE",
"-1069 358 CURVE",
"-1045 284 OFFCURVE",
"-1038 266 OFFCURVE",
"-1026 245 CURVE",
"-1023 240 OFFCURVE",
"-1021 234 OFFCURVE",
"-1021 233 CURVE",
"-1021 231 OFFCURVE",
"-1036 231 OFFCURVE",
"-1104 231 CURVE",
"-1186 231 LINE",
"-1196 240 LINE"
);
},
{
closed = 1;
nodes = (
"-1084 274 OFFCURVE",
"-1094 332 OFFCURVE",
"-1096 333 CURVE",
"-1098 333 OFFCURVE",
"-1123 280 OFFCURVE",
"-1123 275 CURVE",
"-1123 270 LINE",
"-1104 272 LINE",
"-1094 272 OFFCURVE",
"-1085 273 OFFCURVE",
"-1085 273 CURVE"
);
}
);
width = 0;
}
);
unicode = 0034;
},
{
glyphname = five;
lastChange = "2019-04-16 18:00:57 +0000";
layers = (
{
layerId = "C0F12C34-0F87-4A08-A93A-59AC8BF14692";
paths = (
{
closed = 1;
nodes = (
"-1203 234 OFFCURVE",
"-1205 237 OFFCURVE",
"-1205 239 CURVE",
"-1206 243 OFFCURVE",
"-1205 245 OFFCURVE",
"-1198 254 CURVE",
"-1189 267 OFFCURVE",
"-1182 283 OFFCURVE",
"-1181 290 CURVE",
"-1180 293 OFFCURVE",
"-1183 306 OFFCURVE",
"-1190 336 CURVE",
"-1198 368 OFFCURVE",
"-1200 378 OFFCURVE",
"-1200 385 CURVE",
"-1200 394 LINE",
"-1195 399 LINE",
"-1189 404 OFFCURVE",
"-1177 410 OFFCURVE",
"-1159 414 CURVE",
"-1144 416 OFFCURVE",
"-1144 416 OFFCURVE",
"-1140 413 CURVE",
"-1138 410 LINE",
"-1141 385 LINE",
"-1144 366 OFFCURVE",
"-1144 359 OFFCURVE",
"-1144 356 CURVE",
"-1143 355 OFFCURVE",
"-1142 354 OFFCURVE",
"-1142 354 CURVE",
"-1142 354 OFFCURVE",
"-1121 361 OFFCURVE",
"-1097 369 CURVE",
"-1053 385 OFFCURVE",
"-1052 385 OFFCURVE",
"-1044 385 CURVE",
"-1036 384 OFFCURVE",
"-1035 384 OFFCURVE",
"-1033 381 CURVE",
"-1031 376 OFFCURVE",
"-1028 362 OFFCURVE",
"-1029 356 CURVE",
"-1030 352 OFFCURVE",
"-1035 345 OFFCURVE",
"-1041 343 CURVE",
"-1043 341 OFFCURVE",
"-1049 340 OFFCURVE",
"-1053 339 CURVE",
"-1066 338 OFFCURVE",
"-1134 314 OFFCURVE",
"-1137 310 CURVE",
"-1138 310 OFFCURVE",
"-1138 309 OFFCURVE",
"-1138 308 CURVE",
"-1139 305 OFFCURVE",
"-1138 305 OFFCURVE",
"-1136 304 CURVE",
"-1128 301 OFFCURVE",
"-1104 296 OFFCURVE",
"-1075 290 CURVE",
"-1032 284 OFFCURVE",
"-1031 283 OFFCURVE",
"-1028 279 CURVE",
"-1023 272 OFFCURVE",
"-1022 268 OFFCURVE",
"-1022 259 CURVE",
"-1022 250 OFFCURVE",
"-1022 250 OFFCURVE",
"-1026 247 CURVE",
"-1029 243 OFFCURVE",
"-1030 243 OFFCURVE",
"-1034 243 CURVE",
"-1037 243 OFFCURVE",
"-1059 248 OFFCURVE",
"-1085 254 CURVE",
"-1109 259 OFFCURVE",
"-1130 265 OFFCURVE",
"-1131 265 CURVE",
"-1131 265 OFFCURVE",
"-1132 262 OFFCURVE",
"-1133 259 CURVE",
"-1135 250 OFFCURVE",
"-1144 241 OFFCURVE",
"-1154 236 CURVE",
"-1165 231 OFFCURVE",
"-1174 229 OFFCURVE",
"-1187 229 CURVE",
"-1198 229 OFFCURVE",
"-1198 229 OFFCURVE",
"-1201 232 CURVE"
);
}
);
width = 0;
}
);
unicode = 0035;
},
{
glyphname = six;
lastChange = "2019-04-16 18:00:57 +0000";
layers = (
{
layerId = "C0F12C34-0F87-4A08-A93A-59AC8BF14692";
paths = (
{
closed = 1;
nodes = (
"-1193 248 OFFCURVE",
"-1194 253 OFFCURVE",
"-1189 267 CURVE",
"-1184 286 OFFCURVE",
"-1166 314 OFFCURVE",
"-1138 348 CURVE",
"-1127 360 LINE",
"-1138 361 LINE",
"-1190 366 OFFCURVE",
"-1213 371 OFFCURVE",
"-1218 380 CURVE",
"-1219 382 OFFCURVE",
"-1219 383 OFFCURVE",
"-1217 385 CURVE",
"-1215 388 OFFCURVE",
"-1207 391 OFFCURVE",
"-1196 394 CURVE",
"-1191 395 OFFCURVE",
"-1189 397 OFFCURVE",
"-1185 402 CURVE",
"-1180 409 OFFCURVE",
"-1171 415 OFFCURVE",
"-1167 415 CURVE",
"-1165 415 OFFCURVE",
"-1164 414 OFFCURVE",
"-1162 410 CURVE",
"-1160 408 OFFCURVE",
"-1158 404 OFFCURVE",
"-1155 403 CURVE",
"-1148 398 OFFCURVE",
"-1131 397 OFFCURVE",
"-1115 400 CURVE",
"-1096 404 OFFCURVE",
"-1053 405 OFFCURVE",
"-1039 402 CURVE",
"-1033 400 OFFCURVE",
"-1030 399 OFFCURVE",
"-1026 395 CURVE",
"-1020 389 OFFCURVE",
"-1020 385 OFFCURVE",
"-1024 376 CURVE",
"-1029 367 OFFCURVE",
"-1051 345 OFFCURVE",
"-1071 330 CURVE",
"-1095 312 OFFCURVE",
"-1124 283 OFFCURVE",
"-1124 278 CURVE",
"-1124 277 OFFCURVE",
"-1120 279 OFFCURVE",
"-1116 281 CURVE",
"-1100 288 OFFCURVE",
"-1082 290 OFFCURVE",
"-1067 286 CURVE",
"-1053 283 OFFCURVE",
"-1038 272 OFFCURVE",
"-1025 258 CURVE",
"-1019 251 OFFCURVE",
"-1009 237 OFFCURVE",
"-1009 236 CURVE",
"-1009 235 OFFCURVE",
"-1011 234 OFFCURVE",
"-1015 232 CURVE",
"-1022 229 OFFCURVE",
"-1027 229 OFFCURVE",
"-1054 231 CURVE",
"-1072 232 LINE",
"-1083 238 LINE",
"-1109 252 OFFCURVE",
"-1111 252 OFFCURVE",
"-1148 239 CURVE",
"-1164 234 OFFCURVE",
"-1177 230 OFFCURVE",
"-1178 230 CURVE",
"-1178 230 OFFCURVE",
"-1181 232 OFFCURVE",
"-1184 235 CURVE"
);
}
);
width = 0;
}
);
unicode = 0036;
},
{
glyphname = seven;
lastChange = "2019-04-16 18:00:57 +0000";
layers = (
{
layerId = "C0F12C34-0F87-4A08-A93A-59AC8BF14692";
paths = (
{
closed = 1;
nodes = (
"-1118 247 OFFCURVE",
"-1121 252 OFFCURVE",
"-1123 256 CURVE",
"-1127 263 OFFCURVE",
"-1136 291 OFFCURVE",
"-1137 298 CURVE",
"-1138 303 OFFCURVE",
"-1150 316 OFFCURVE",
"-1162 325 CURVE",
"-1170 331 OFFCURVE",
"-1182 338 OFFCURVE",
"-1190 340 CURVE",
"-1196 342 OFFCURVE",
"-1197 345 OFFCURVE",
"-1196 360 CURVE",
"-1195 379 OFFCURVE",
"-1192 387 OFFCURVE",
"-1184 395 CURVE",
"-1180 399 OFFCURVE",
"-1176 402 OFFCURVE",
"-1172 403 CURVE",
"-1168 404 OFFCURVE",
"-1167 404 OFFCURVE",
"-1161 401 CURVE",
"-1143 392 OFFCURVE",
"-1120 359 OFFCURVE",
"-1116 338 CURVE",
"-1113 323 OFFCURVE",
"-1111 314 OFFCURVE",
"-1110 316 CURVE",
"-1110 316 OFFCURVE",
"-1109 319 OFFCURVE",
"-1108 322 CURVE",
"-1104 335 OFFCURVE",
"-1088 363 OFFCURVE",
"-1069 387 CURVE",
"-1061 398 LINE",
"-1054 398 LINE",
"-1044 398 OFFCURVE",
"-1040 395 OFFCURVE",
"-1035 386 CURVE",
"-1031 381 OFFCURVE",
"-1031 379 OFFCURVE",
"-1031 374 CURVE",
"-1031 369 OFFCURVE",
"-1031 367 OFFCURVE",
"-1051 336 CURVE",
"-1067 312 OFFCURVE",
"-1073 300 OFFCURVE",
"-1078 289 CURVE",
"-1086 270 OFFCURVE",
"-1096 251 OFFCURVE",
"-1100 245 CURVE",
"-1105 240 OFFCURVE",
"-1109 240 OFFCURVE",
"-1115 245 CURVE"
);
}
);
width = 0;
}
);
unicode = 0037;
},
{
glyphname = colon;
lastChange = "2019-04-16 18:00:57 +0000";
layers = (
{
layerId = "C0F12C34-0F87-4A08-A93A-59AC8BF14692";
paths = (
{
closed = 1;
nodes = (
"33 647 OFFCURVE",
"54 636 OFFCURVE",
"60 631 CURVE",
"70 622 OFFCURVE",
"79 592 OFFCURVE",
"77 573 CURVE",
"74 539 OFFCURVE",
"44 508 OFFCURVE",
"11 506 CURVE",
"-1 505 OFFCURVE",
"-21 509 OFFCURVE",
"-29 514 CURVE",
"-33 517 OFFCURVE",
"-34 517 OFFCURVE",
"-43 507 CURVE",
"-52 498 LINE",
"-38 485 LINE",
"-30 477 OFFCURVE",
"-23 470 OFFCURVE",
"-23 469 CURVE",
"-23 466 OFFCURVE",
"-43 449 OFFCURVE",
"-47 449 CURVE",
"-48 449 OFFCURVE",
"-56 454 OFFCURVE",
"-62 459 CURVE",
"-75 470 LINE",
"-83 462 LINE",
"-91 454 LINE",
"-85 447 LINE",
"-83 443 OFFCURVE",
"-78 438 OFFCURVE",
"-74 435 CURVE",
"-71 432 OFFCURVE",
"-69 428 OFFCURVE",
"-69 427 CURVE",
"-69 426 OFFCURVE",
"-73 421 OFFCURVE",
"-79 415 CURVE",
"-89 405 LINE",
"-102 417 LINE",
"-115 430 LINE",
"-122 423 LINE",
"-129 416 LINE",
"-141 429 LINE",
"-154 441 LINE",
"-148 448 LINE",
"-144 451 OFFCURVE",
"-142 454 OFFCURVE",
"-142 455 CURVE",
"-142 456 OFFCURVE",
"-147 463 OFFCURVE",
"-154 470 CURVE",
"-162 477 OFFCURVE",
"-166 483 OFFCURVE",
"-166 485 CURVE",
"-165 486 OFFCURVE",
"-160 492 OFFCURVE",
"-154 497 CURVE",
"-143 506 LINE",
"-130 492 LINE",
"-116 479 LINE",
"-108 487 LINE",
"-100 495 LINE",
"-114 508 LINE",
"-121 515 OFFCURVE",
"-127 522 OFFCURVE",
"-127 523 CURVE",
"-127 526 OFFCURVE",
"-106 547 OFFCURVE",
"-103 547 CURVE",
"-102 547 OFFCURVE",
"-96 541 OFFCURVE",
"-90 534 CURVE",
"-84 528 OFFCURVE",
"-78 522 OFFCURVE",
"-77 522 CURVE",
"-76 522 OFFCURVE",
"-71 526 OFFCURVE",
"-67 530 CURVE",
"-59 539 LINE",
"-64 550 LINE",
"-69 559 OFFCURVE",
"-69 563 OFFCURVE",
"-69 578 CURVE",
"-69 593 OFFCURVE",
"-69 596 OFFCURVE",
"-64 606 CURVE",
"-54 625 OFFCURVE",
"-36 641 OFFCURVE",
"-14 648 CURVE",
"-3 652 OFFCURVE",
"9 653 OFFCURVE",
"23 649 CURVE"
);
},
{
closed = 1;
nodes = (
"-16 607 OFFCURVE",
"-26 595 OFFCURVE",
"-29 584 CURVE",
"-32 575 OFFCURVE",
"-29 565 OFFCURVE",
"-21 555 CURVE",
"-5 535 OFFCURVE",
"17 537 OFFCURVE",
"36 559 CURVE",
"40 564 OFFCURVE",
"41 567 OFFCURVE",
"41 577 CURVE",
"41 595 OFFCURVE",
"30 609 OFFCURVE",
"13 614 CURVE",
"5 617 OFFCURVE",
"2 616 OFFCURVE",
"-6 612 CURVE"
);
}
);
width = 0;
}
);
unicode = 003A;
},
{
glyphname = comma;
lastChange = "2019-04-16 18:00:57 +0000";
layers = (
{
layerId = "C0F12C34-0F87-4A08-A93A-59AC8BF14692";
paths = (
{
closed = 1;
nodes = (
"-679 479 OFFCURVE",
"-680 486 OFFCURVE",
"-680 500 CURVE",
"-680 519 LINE",
"-702 519 LINE",
"-720 519 OFFCURVE",
"-725 520 OFFCURVE",
"-725 521 CURVE",
"-726 523 OFFCURVE",
"-724 528 OFFCURVE",
"-721 534 CURVE",
"-716 543 LINE",
"-696 544 LINE",
"-676 544 LINE",
"-676 551 LINE",
"-676 554 OFFCURVE",
"-677 561 OFFCURVE",
"-677 565 CURVE",
"-678 573 OFFCURVE",
"-678 573 OFFCURVE",
"-685 575 CURVE",
"-703 579 OFFCURVE",
"-716 589 OFFCURVE",
"-723 603 CURVE",
"-727 612 OFFCURVE",
"-727 614 OFFCURVE",
"-727 627 CURVE",
"-727 639 OFFCURVE",
"-727 642 OFFCURVE",
"-723 649 CURVE",
"-718 660 OFFCURVE",
"-708 668 OFFCURVE",
"-690 677 CURVE",
"-676 684 LINE",
"-656 684 LINE",
"-646 684 OFFCURVE",
"-634 683 OFFCURVE",
"-630 682 CURVE",
"-607 675 OFFCURVE",
"-587 633 OFFCURVE",
"-597 611 CURVE",
"-602 601 OFFCURVE",
"-617 589 OFFCURVE",
"-633 581 CURVE",
"-647 573 LINE",
"-647 559 LINE",
"-647 545 LINE",
"-625 545 LINE",
"-613 546 OFFCURVE",
"-603 545 OFFCURVE",
"-602 545 CURVE",
"-600 543 OFFCURVE",
"-605 531 OFFCURVE",
"-610 524 CURVE",
"-613 519 LINE",
"-631 519 LINE",
"-649 519 LINE",
"-649 501 LINE",
"-649 483 OFFCURVE",
"-649 482 OFFCURVE",
"-653 479 CURVE",
"-656 477 OFFCURVE",
"-659 476 OFFCURVE",
"-666 476 CURVE",
"-672 476 OFFCURVE",
"-677 477 OFFCURVE",
"-678 478 CURVE"
);
},
{
closed = 1;
nodes = (
"-645 611 OFFCURVE",
"-636 632 OFFCURVE",
"-636 642 CURVE",
"-636 648 OFFCURVE",
"-643 655 OFFCURVE",
"-650 657 CURVE",
"-656 658 OFFCURVE",
"-657 658 OFFCURVE",
"-665 654 CURVE",
"-669 652 OFFCURVE",
"-674 647 OFFCURVE",
"-676 645 CURVE",
"-683 635 OFFCURVE",
"-682 615 OFFCURVE",
"-675 603 CURVE",
"-672 598 OFFCURVE",
"-671 598 OFFCURVE",
"-665 599 CURVE",
"-660 599 OFFCURVE",
"-656 601 OFFCURVE",
"-653 604 CURVE"
);
}
);
width = 0;
}
);
unicode = 002C;
},
{
glyphname = exclam;
lastChange = "2019-04-16 18:00:57 +0000";
layers = (
{
layerId = "C0F12C34-0F87-4A08-A93A-59AC8BF14692";
paths = (
{
closed = 1;
nodes = (
"-227 260 OFFCURVE",
"-237 270 OFFCURVE",
"-242 283 CURVE",
"-248 293 OFFCURVE",
"-250 312 OFFCURVE",
"-248 343 CURVE",
"-247 369 LINE",
"-260 369 LINE",
"-270 369 LINE",
"-271 359 LINE",
"-271 355 OFFCURVE",
"-271 339 OFFCURVE",
"-273 324 CURVE",
"-274 294 OFFCURVE",
"-274 286 OFFCURVE",
"-278 276 CURVE",
"-284 267 OFFCURVE",
"-288 264 OFFCURVE",
"-304 264 CURVE",
"-317 264 OFFCURVE",
"-319 264 OFFCURVE",
"-320 265 CURVE",
"-320 267 OFFCURVE",
"-319 278 OFFCURVE",
"-316 289 CURVE",
"-311 315 OFFCURVE",
"-304 348 OFFCURVE",
"-304 357 CURVE",
"-304 368 OFFCURVE",
"-306 369 OFFCURVE",
"-331 369 CURVE",
"-353 369 LINE",
"-353 366 LINE",
"-353 359 OFFCURVE",
"-355 357 OFFCURVE",
"-366 358 CURVE",
"-379 359 OFFCURVE",
"-381 362 OFFCURVE",
"-381 371 CURVE",
"-381 378 OFFCURVE",
"-379 384 OFFCURVE",
"-376 388 CURVE",
"-372 391 LINE",
"-265 391 LINE",
"-144 391 OFFCURVE",
"-154 392 OFFCURVE",
"-153 380 CURVE",
"-152 376 OFFCURVE",
"-153 374 OFFCURVE",
"-155 372 CURVE",
"-158 369 OFFCURVE",
"-160 369 OFFCURVE",
"-180 368 CURVE",
"-202 368 LINE",
"-204 354 LINE",
"-205 327 OFFCURVE",
"-201 297 OFFCURVE",
"-191 276 CURVE",
"-186 264 OFFCURVE",
"-187 260 OFFCURVE",
"-194 256 CURVE",
"-201 253 OFFCURVE",
"-204 252 OFFCURVE",
"-211 255 CURVE"
);
}
);
width = 0;
}
);
unicode = 0021;
},
{
glyphname = numbersign;
lastChange = "2019-04-16 18:00:57 +0000";
layers = (
{
layerId = "C0F12C34-0F87-4A08-A93A-59AC8BF14692";
paths = (
{
closed = 1;
nodes = (
"-309 240 OFFCURVE",
"-317 241 OFFCURVE",
"-319 244 CURVE",
"-322 246 OFFCURVE",
"-322 264 OFFCURVE",
"-323 313 CURVE",
"-323 376 OFFCURVE",
"-324 377 OFFCURVE",
"-330 384 CURVE",
"-336 390 OFFCURVE",
"-336 399 OFFCURVE",
"-332 405 CURVE",
"-330 407 OFFCURVE",
"-323 407 OFFCURVE",
"-286 407 CURVE",
"-263 405 OFFCURVE",
"-234 405 OFFCURVE",
"-223 405 CURVE",
"-206 404 OFFCURVE",
"-202 404 OFFCURVE",
"-196 399 CURVE",
"-193 396 OFFCURVE",
"-190 390 OFFCURVE",
"-190 386 CURVE",
"-188 380 OFFCURVE",
"-188 378 OFFCURVE",
"-196 375 CURVE",
"-202 371 OFFCURVE",
"-208 371 OFFCURVE",
"-239 372 CURVE",
"-274 373 LINE",
"-273 309 LINE",
"-270 241 OFFCURVE",
"-271 237 OFFCURVE",
"-280 237 CURVE",
"-283 239 OFFCURVE",
"-291 239 OFFCURVE",
"-299 239 CURVE"
);
}
);
width = 0;
}
);
unicode = 0023;
},
{
glyphname = period;
lastChange = "2019-04-16 18:00:57 +0000";
layers = (
{
layerId = "C0F12C34-0F87-4A08-A93A-59AC8BF14692";
paths = (
{
closed = 1;
nodes = (
"-677 683 OFFCURVE",
"-672 684 OFFCURVE",
"-666 684 CURVE",
"-659 684 OFFCURVE",
"-656 683 OFFCURVE",
"-653 681 CURVE",
"-649 678 OFFCURVE",
"-649 677 OFFCURVE",
"-649 659 CURVE",
"-649 641 LINE",
"-631 641 LINE",
"-613 641 LINE",
"-610 636 LINE",
"-605 629 OFFCURVE",
"-600 617 OFFCURVE",
"-602 615 CURVE",
"-603 615 OFFCURVE",
"-613 614 OFFCURVE",
"-625 615 CURVE",
"-647 615 LINE",
"-647 601 LINE",
"-647 587 LINE",
"-633 579 LINE",
"-617 571 OFFCURVE",
"-602 559 OFFCURVE",
"-597 549 CURVE",
"-587 527 OFFCURVE",
"-607 485 OFFCURVE",
"-630 478 CURVE",
"-634 477 OFFCURVE",
"-646 476 OFFCURVE",
"-656 476 CURVE",
"-676 476 LINE",
"-690 483 LINE",
"-708 492 OFFCURVE",
"-718 500 OFFCURVE",
"-723 511 CURVE",
"-727 518 OFFCURVE",
"-727 521 OFFCURVE",
"-727 533 CURVE",
"-727 546 OFFCURVE",
"-727 548 OFFCURVE",
"-723 557 CURVE",
"-716 571 OFFCURVE",
"-703 581 OFFCURVE",
"-685 585 CURVE",
"-678 587 OFFCURVE",
"-678 587 OFFCURVE",
"-677 595 CURVE",
"-677 599 OFFCURVE",
"-676 606 OFFCURVE",
"-676 609 CURVE",
"-676 616 LINE",
"-696 616 LINE",
"-716 617 LINE",
"-721 626 LINE",
"-724 632 OFFCURVE",
"-726 637 OFFCURVE",
"-725 639 CURVE",
"-725 640 OFFCURVE",
"-720 641 OFFCURVE",
"-702 641 CURVE",
"-680 641 LINE",
"-680 660 LINE",
"-680 674 OFFCURVE",
"-679 681 OFFCURVE",
"-678 682 CURVE"
);
},
{
closed = 1;
nodes = (
"-656 559 OFFCURVE",
"-660 561 OFFCURVE",
"-665 561 CURVE",
"-671 562 OFFCURVE",
"-672 562 OFFCURVE",
"-675 557 CURVE",
"-682 545 OFFCURVE",
"-683 525 OFFCURVE",
"-676 515 CURVE",
"-674 513 OFFCURVE",
"-669 508 OFFCURVE",
"-665 506 CURVE",
"-657 502 OFFCURVE",
"-656 502 OFFCURVE",
"-650 503 CURVE",
"-643 505 OFFCURVE",
"-636 512 OFFCURVE",
"-636 518 CURVE",
"-636 528 OFFCURVE",
"-645 549 OFFCURVE",
"-653 556 CURVE"
);
}
);
width = 0;
}
);
unicode = 002E;
},
{
glyphname = quotedbl;
lastChange = "2019-04-16 18:00:57 +0000";
layers = (
{
layerId = "C0F12C34-0F87-4A08-A93A-59AC8BF14692";
paths = (
{
closed = 1;
nodes = (
"-490 -367 OFFCURVE",
"-511 -356 OFFCURVE",
"-517 -351 CURVE",
"-527 -342 OFFCURVE",
"-536 -312 OFFCURVE",
"-534 -293 CURVE",
"-531 -259 OFFCURVE",
"-501 -228 OFFCURVE",
"-468 -226 CURVE",
"-456 -225 OFFCURVE",
"-436 -229 OFFCURVE",
"-428 -234 CURVE",
"-424 -237 OFFCURVE",
"-423 -237 OFFCURVE",
"-414 -227 CURVE",
"-405 -218 LINE",
"-419 -205 LINE",
"-427 -197 OFFCURVE",
"-434 -190 OFFCURVE",
"-434 -189 CURVE",
"-434 -186 OFFCURVE",
"-414 -169 OFFCURVE",
"-410 -169 CURVE",
"-409 -169 OFFCURVE",
"-401 -174 OFFCURVE",
"-395 -179 CURVE",
"-382 -190 LINE",
"-374 -182 LINE",
"-366 -174 LINE",
"-372 -167 LINE",
"-374 -163 OFFCURVE",
"-379 -158 OFFCURVE",
"-383 -155 CURVE",
"-386 -152 OFFCURVE",
"-388 -148 OFFCURVE",
"-388 -147 CURVE",
"-388 -146 OFFCURVE",
"-384 -141 OFFCURVE",
"-378 -135 CURVE",
"-368 -125 LINE",
"-355 -137 LINE",
"-342 -150 LINE",
"-335 -143 LINE",
"-328 -136 LINE",
"-316 -149 LINE",
"-303 -161 LINE",
"-309 -168 LINE",
"-313 -171 OFFCURVE",
"-315 -174 OFFCURVE",
"-315 -175 CURVE",
"-315 -176 OFFCURVE",
"-310 -183 OFFCURVE",
"-303 -190 CURVE",
"-295 -197 OFFCURVE",
"-291 -203 OFFCURVE",
"-291 -205 CURVE",
"-292 -206 OFFCURVE",
"-297 -212 OFFCURVE",
"-303 -217 CURVE",
"-314 -226 LINE",
"-327 -212 LINE",
"-341 -199 LINE",
"-349 -207 LINE",
"-357 -215 LINE",
"-343 -228 LINE",
"-336 -235 OFFCURVE",
"-330 -242 OFFCURVE",
"-330 -243 CURVE",
"-330 -246 OFFCURVE",
"-351 -267 OFFCURVE",
"-354 -267 CURVE",
"-355 -267 OFFCURVE",
"-361 -261 OFFCURVE",
"-367 -254 CURVE",
"-373 -248 OFFCURVE",
"-379 -242 OFFCURVE",
"-380 -242 CURVE",
"-381 -242 OFFCURVE",
"-386 -246 OFFCURVE",
"-390 -250 CURVE",
"-398 -259 LINE",
"-393 -270 LINE",
"-388 -279 OFFCURVE",
"-388 -283 OFFCURVE",
"-388 -298 CURVE",
"-388 -313 OFFCURVE",
"-388 -316 OFFCURVE",
"-393 -326 CURVE",
"-403 -345 OFFCURVE",
"-421 -361 OFFCURVE",
"-443 -368 CURVE",
"-454 -372 OFFCURVE",
"-466 -373 OFFCURVE",
"-480 -369 CURVE"
);
},
{
closed = 1;
nodes = (
"-441 -327 OFFCURVE",
"-431 -315 OFFCURVE",
"-428 -304 CURVE",
"-425 -295 OFFCURVE",
"-428 -285 OFFCURVE",
"-436 -275 CURVE",
"-452 -255 OFFCURVE",
"-474 -257 OFFCURVE",
"-493 -279 CURVE",
"-497 -284 OFFCURVE",
"-498 -287 OFFCURVE",
"-498 -297 CURVE",
"-498 -315 OFFCURVE",
"-487 -329 OFFCURVE",
"-470 -334 CURVE",
"-462 -337 OFFCURVE",
"-459 -336 OFFCURVE",
"-451 -332 CURVE"
);
}
);
width = 0;
}
);
unicode = 0022;
},
{
glyphname = quotesingle;
lastChange = "2019-04-16 18:00:57 +0000";
layers = (
{
layerId = "C0F12C34-0F87-4A08-A93A-59AC8BF14692";
paths = (
{
closed = 1;
nodes = (
"-674 -307 OFFCURVE",
"-695 -296 OFFCURVE",
"-701 -291 CURVE",
"-711 -282 OFFCURVE",
"-720 -252 OFFCURVE",
"-718 -233 CURVE",
"-715 -199 OFFCURVE",
"-685 -168 OFFCURVE",
"-652 -166 CURVE",
"-640 -165 OFFCURVE",
"-620 -169 OFFCURVE",
"-612 -174 CURVE",
"-608 -177 OFFCURVE",
"-607 -177 OFFCURVE",
"-598 -167 CURVE",
"-589 -158 LINE",
"-603 -145 LINE",
"-611 -137 OFFCURVE",
"-618 -130 OFFCURVE",
"-618 -129 CURVE",
"-618 -126 OFFCURVE",
"-598 -109 OFFCURVE",
"-594 -109 CURVE",
"-593 -109 OFFCURVE",
"-585 -114 OFFCURVE",
"-579 -119 CURVE",
"-566 -130 LINE",
"-558 -122 LINE",
"-550 -114 LINE",
"-556 -107 LINE",
"-558 -103 OFFCURVE",
"-563 -98 OFFCURVE",
"-567 -95 CURVE",
"-570 -92 OFFCURVE",
"-572 -88 OFFCURVE",
"-572 -87 CURVE",
"-572 -86 OFFCURVE",
"-568 -81 OFFCURVE",
"-562 -75 CURVE",
"-552 -65 LINE",
"-539 -77 LINE",
"-526 -90 LINE",
"-519 -83 LINE",
"-512 -76 LINE",
"-500 -89 LINE",
"-487 -101 LINE",
"-493 -108 LINE",
"-497 -111 OFFCURVE",
"-499 -114 OFFCURVE",
"-499 -115 CURVE",
"-499 -116 OFFCURVE",
"-494 -123 OFFCURVE",
"-487 -130 CURVE",
"-479 -137 OFFCURVE",
"-475 -143 OFFCURVE",
"-475 -145 CURVE",
"-476 -146 OFFCURVE",
"-481 -152 OFFCURVE",
"-487 -157 CURVE",
"-498 -166 LINE",
"-511 -152 LINE",
"-525 -139 LINE",
"-533 -147 LINE",
"-541 -155 LINE",
"-527 -168 LINE",
"-520 -175 OFFCURVE",
"-514 -182 OFFCURVE",
"-514 -183 CURVE",
"-514 -186 OFFCURVE",
"-535 -207 OFFCURVE",
"-538 -207 CURVE",
"-539 -207 OFFCURVE",
"-545 -201 OFFCURVE",
"-551 -194 CURVE",
"-557 -188 OFFCURVE",
"-563 -182 OFFCURVE",
"-564 -182 CURVE",
"-565 -182 OFFCURVE",
"-570 -186 OFFCURVE",
"-574 -190 CURVE",
"-582 -199 LINE",
"-577 -210 LINE",
"-572 -219 OFFCURVE",
"-572 -223 OFFCURVE",
"-572 -238 CURVE",
"-572 -253 OFFCURVE",
"-572 -256 OFFCURVE",
"-577 -266 CURVE",
"-587 -285 OFFCURVE",
"-605 -301 OFFCURVE",
"-627 -308 CURVE",
"-638 -312 OFFCURVE",
"-650 -313 OFFCURVE",
"-664 -309 CURVE"
);
},
{
closed = 1;
nodes = (
"-625 -267 OFFCURVE",
"-615 -255 OFFCURVE",
"-612 -244 CURVE",
"-609 -235 OFFCURVE",
"-612 -225 OFFCURVE",
"-620 -215 CURVE",
"-636 -195 OFFCURVE",
"-658 -197 OFFCURVE",
"-677 -219 CURVE",
"-681 -224 OFFCURVE",
"-682 -227 OFFCURVE",
"-682 -237 CURVE",
"-682 -255 OFFCURVE",
"-671 -269 OFFCURVE",
"-654 -274 CURVE",
"-646 -277 OFFCURVE",
"-643 -276 OFFCURVE",
"-635 -272 CURVE"
);
}
);
width = 0;
}
);
unicode = 0027;
},
{
glyphname = semicolon;
lastChange = "2019-04-16 18:00:57 +0000";
layers = (
{
layerId = "C0F12C34-0F87-4A08-A93A-59AC8BF14692";
paths = (
{
closed = 1;
nodes = (
"-379 527 OFFCURVE",
"-358 516 OFFCURVE",
"-352 511 CURVE",
"-342 502 OFFCURVE",
"-333 472 OFFCURVE",
"-335 453 CURVE",
"-338 419 OFFCURVE",
"-368 388 OFFCURVE",
"-401 386 CURVE",
"-413 385 OFFCURVE",
"-433 389 OFFCURVE",
"-441 394 CURVE",
"-445 397 OFFCURVE",
"-446 397 OFFCURVE",
"-455 387 CURVE",
"-464 378 LINE",
"-450 365 LINE",
"-442 357 OFFCURVE",
"-435 350 OFFCURVE",
"-435 349 CURVE",
"-435 346 OFFCURVE",
"-455 329 OFFCURVE",
"-459 329 CURVE",
"-460 329 OFFCURVE",
"-468 334 OFFCURVE",
"-474 339 CURVE",
"-487 350 LINE",
"-495 342 LINE",
"-503 334 LINE",
"-497 327 LINE",
"-495 323 OFFCURVE",
"-490 318 OFFCURVE",
"-486 315 CURVE",
"-483 312 OFFCURVE",
"-481 308 OFFCURVE",
"-481 307 CURVE",
"-481 306 OFFCURVE",
"-485 301 OFFCURVE",
"-491 295 CURVE",
"-501 285 LINE",
"-514 297 LINE",
"-527 310 LINE",
"-534 303 LINE",
"-541 296 LINE",
"-553 309 LINE",
"-566 321 LINE",
"-560 328 LINE",
"-556 331 OFFCURVE",
"-554 334 OFFCURVE",
"-554 335 CURVE",
"-554 336 OFFCURVE",
"-559 343 OFFCURVE",
"-566 350 CURVE",
"-574 357 OFFCURVE",
"-578 363 OFFCURVE",
"-578 365 CURVE",
"-577 366 OFFCURVE",
"-572 372 OFFCURVE",
"-566 377 CURVE",
"-555 386 LINE",
"-542 372 LINE",
"-528 359 LINE",
"-520 367 LINE",
"-512 375 LINE",
"-526 388 LINE",
"-533 395 OFFCURVE",
"-539 402 OFFCURVE",
"-539 403 CURVE",
"-539 406 OFFCURVE",
"-518 427 OFFCURVE",
"-515 427 CURVE",
"-514 427 OFFCURVE",
"-508 421 OFFCURVE",
"-502 414 CURVE",
"-496 408 OFFCURVE",
"-490 402 OFFCURVE",
"-489 402 CURVE",
"-488 402 OFFCURVE",
"-483 406 OFFCURVE",
"-479 410 CURVE",
"-471 419 LINE",
"-476 430 LINE",
"-481 439 OFFCURVE",
"-481 443 OFFCURVE",
"-481 458 CURVE",
"-481 473 OFFCURVE",
"-481 476 OFFCURVE",
"-476 486 CURVE",
"-466 505 OFFCURVE",
"-448 521 OFFCURVE",
"-426 528 CURVE",
"-415 532 OFFCURVE",
"-403 533 OFFCURVE",
"-389 529 CURVE"
);
},
{
closed = 1;
nodes = (
"-428 487 OFFCURVE",
"-438 475 OFFCURVE",
"-441 464 CURVE",
"-444 455 OFFCURVE",
"-441 445 OFFCURVE",
"-433 435 CURVE",
"-417 415 OFFCURVE",
"-395 417 OFFCURVE",
"-376 439 CURVE",
"-372 444 OFFCURVE",
"-371 447 OFFCURVE",
"-371 457 CURVE",
"-371 475 OFFCURVE",
"-382 489 OFFCURVE",
"-399 494 CURVE",
"-407 497 OFFCURVE",
"-410 496 OFFCURVE",
"-418 492 CURVE"
);
}
);
width = 0;
}
);
unicode = 003B;
},
{
glyphname = braceleft;
lastChange = "2019-04-16 18:00:57 +0000";
layers = (
{
layerId = "C0F12C34-0F87-4A08-A93A-59AC8BF14692";
paths = (
{
closed = 1;
nodes = (
"57 637 OFFCURVE",
"73 625 OFFCURVE",
"80 608 CURVE",
"86 595 OFFCURVE",
"86 567 OFFCURVE",
"80 555 CURVE",
"72 538 OFFCURVE",
"49 521 OFFCURVE",
"21 513 CURVE",
"8 510 OFFCURVE",
"2 510 OFFCURVE",
"-15 510 CURVE",
"-30 511 OFFCURVE",
"-34 510 OFFCURVE",
"-37 507 CURVE",
"-40 502 OFFCURVE",
"-56 479 OFFCURVE",
"-55 479 CURVE",
"-55 478 OFFCURVE",
"-50 474 OFFCURVE",
"-44 471 CURVE",
"-29 462 OFFCURVE",
"-20 454 OFFCURVE",
"-20 449 CURVE",
"-20 446 OFFCURVE",
"-21 443 OFFCURVE",
"-23 440 CURVE",
"-28 431 OFFCURVE",
"-34 432 OFFCURVE",
"-54 446 CURVE",
"-69 459 LINE",
"-74 450 LINE",
"-83 436 OFFCURVE",
"-90 431 OFFCURVE",
"-101 429 CURVE",
"-109 428 OFFCURVE",
"-109 428 OFFCURVE",
"-118 438 CURVE",
"-123 444 OFFCURVE",
"-127 449 OFFCURVE",
"-127 450 CURVE",
"-127 451 OFFCURVE",
"-122 457 OFFCURVE",
"-114 465 CURVE",
"-100 479 OFFCURVE",
"-97 484 OFFCURVE",
"-101 489 CURVE",
"-102 490 OFFCURVE",
"-109 498 OFFCURVE",
"-117 506 CURVE",
"-123 513 OFFCURVE",
"-129 522 OFFCURVE",
"-129 522 CURVE",
"-129 524 OFFCURVE",
"-119 534 OFFCURVE",
"-117 534 CURVE",
"-116 534 OFFCURVE",
"-107 527 OFFCURVE",
"-99 518 CURVE",
"-83 501 LINE",
"-74 507 LINE",
"-71 511 OFFCURVE",
"-65 517 OFFCURVE",
"-62 521 CURVE",
"-56 527 LINE",
"-63 536 LINE",
"-73 550 OFFCURVE",
"-77 562 OFFCURVE",
"-75 577 CURVE",
"-74 594 OFFCURVE",
"-68 606 OFFCURVE",
"-54 620 CURVE",
"-45 630 OFFCURVE",
"-37 636 OFFCURVE",
"-24 641 CURVE",
"-4 652 OFFCURVE",
"10 653 OFFCURVE",
"30 646 CURVE"
);
},
{
closed = 1;
nodes = (
"-26 598 OFFCURVE",
"-32 578 OFFCURVE",
"-20 552 CURVE",
"-16 544 OFFCURVE",
"-13 541 OFFCURVE",
"-9 540 CURVE",
"4 538 OFFCURVE",
"22 546 OFFCURVE",
"28 557 CURVE",
"32 563 OFFCURVE",
"33 568 OFFCURVE",
"33 581 CURVE",
"33 601 OFFCURVE",
"29 608 OFFCURVE",
"19 615 CURVE",
"11 620 OFFCURVE",
"8 619 OFFCURVE",
"-1 613 CURVE"
);
}
);
width = 0;
}
);
unicode = 007B;
},
{
glyphname = braceright;
lastChange = "2019-04-16 18:00:57 +0000";
layers = (
{
layerId = "C0F12C34-0F87-4A08-A93A-59AC8BF14692";
paths = (
{
closed = 1;
nodes = (
"-515 -358 OFFCURVE",
"-531 -346 OFFCURVE",
"-538 -329 CURVE",
"-544 -316 OFFCURVE",
"-544 -288 OFFCURVE",
"-538 -276 CURVE",
"-530 -259 OFFCURVE",
"-507 -242 OFFCURVE",
"-479 -234 CURVE",
"-466 -231 OFFCURVE",
"-460 -231 OFFCURVE",
"-443 -231 CURVE",
"-428 -232 OFFCURVE",
"-424 -231 OFFCURVE",
"-421 -228 CURVE",
"-418 -223 OFFCURVE",
"-402 -200 OFFCURVE",
"-403 -200 CURVE",
"-403 -199 OFFCURVE",
"-408 -195 OFFCURVE",
"-414 -192 CURVE",
"-429 -183 OFFCURVE",
"-438 -175 OFFCURVE",
"-438 -170 CURVE",
"-438 -167 OFFCURVE",
"-437 -164 OFFCURVE",
"-435 -161 CURVE",
"-430 -152 OFFCURVE",
"-424 -153 OFFCURVE",
"-404 -167 CURVE",
"-389 -180 LINE",
"-384 -171 LINE",
"-375 -157 OFFCURVE",
"-368 -152 OFFCURVE",
"-357 -150 CURVE",
"-349 -149 OFFCURVE",
"-349 -149 OFFCURVE",
"-340 -159 CURVE",
"-335 -165 OFFCURVE",
"-331 -170 OFFCURVE",
"-331 -171 CURVE",
"-331 -172 OFFCURVE",
"-336 -178 OFFCURVE",
"-344 -186 CURVE",
"-358 -200 OFFCURVE",
"-361 -205 OFFCURVE",
"-357 -210 CURVE",
"-356 -211 OFFCURVE",
"-349 -219 OFFCURVE",
"-341 -227 CURVE",
"-335 -234 OFFCURVE",
"-329 -243 OFFCURVE",
"-329 -243 CURVE",
"-329 -245 OFFCURVE",
"-339 -255 OFFCURVE",
"-341 -255 CURVE",
"-342 -255 OFFCURVE",
"-351 -248 OFFCURVE",
"-359 -239 CURVE",
"-375 -222 LINE",
"-384 -228 LINE",
"-387 -232 OFFCURVE",
"-393 -238 OFFCURVE",
"-396 -242 CURVE",
"-402 -248 LINE",
"-395 -257 LINE",
"-385 -271 OFFCURVE",
"-381 -283 OFFCURVE",
"-383 -298 CURVE",
"-384 -315 OFFCURVE",
"-390 -327 OFFCURVE",
"-404 -341 CURVE",
"-413 -351 OFFCURVE",
"-421 -357 OFFCURVE",
"-434 -362 CURVE",
"-454 -373 OFFCURVE",
"-468 -374 OFFCURVE",
"-488 -367 CURVE"
);
},
{
closed = 1;
nodes = (
"-432 -319 OFFCURVE",
"-426 -299 OFFCURVE",
"-438 -273 CURVE",
"-442 -265 OFFCURVE",
"-445 -262 OFFCURVE",
"-449 -261 CURVE",
"-462 -259 OFFCURVE",
"-480 -267 OFFCURVE",
"-486 -278 CURVE",
"-490 -284 OFFCURVE",
"-491 -289 OFFCURVE",
"-491 -302 CURVE",
"-491 -322 OFFCURVE",
"-487 -329 OFFCURVE",
"-477 -336 CURVE",
"-469 -341 OFFCURVE",
"-466 -340 OFFCURVE",
"-457 -334 CURVE"
);
}
);
width = 0;
}
);
unicode = 007D;
},
{
glyphname = bracketleft;
lastChange = "2019-04-16 18:00:57 +0000";
layers = (
{
layerId = "C0F12C34-0F87-4A08-A93A-59AC8BF14692";
paths = (
{
closed = 1;
nodes = (
"-355 517 OFFCURVE",
"-339 505 OFFCURVE",
"-332 488 CURVE",
"-326 475 OFFCURVE",
"-326 447 OFFCURVE",
"-332 435 CURVE",
"-340 418 OFFCURVE",
"-363 401 OFFCURVE",
"-391 393 CURVE",
"-404 390 OFFCURVE",
"-410 390 OFFCURVE",
"-427 390 CURVE",
"-442 391 OFFCURVE",
"-446 390 OFFCURVE",
"-449 387 CURVE",
"-452 382 OFFCURVE",
"-468 359 OFFCURVE",
"-467 359 CURVE",
"-467 358 OFFCURVE",
"-462 354 OFFCURVE",
"-456 351 CURVE",
"-441 342 OFFCURVE",
"-432 334 OFFCURVE",
"-432 329 CURVE",
"-432 326 OFFCURVE",
"-433 323 OFFCURVE",
"-435 320 CURVE",
"-440 311 OFFCURVE",
"-446 312 OFFCURVE",
"-466 326 CURVE",
"-481 339 LINE",
"-486 330 LINE",
"-495 316 OFFCURVE",
"-502 311 OFFCURVE",
"-513 309 CURVE",
"-521 308 OFFCURVE",
"-521 308 OFFCURVE",
"-530 318 CURVE",
"-535 324 OFFCURVE",
"-539 329 OFFCURVE",
"-539 330 CURVE",
"-539 331 OFFCURVE",
"-534 337 OFFCURVE",
"-526 345 CURVE",
"-512 359 OFFCURVE",
"-509 364 OFFCURVE",
"-513 369 CURVE",
"-514 370 OFFCURVE",
"-521 378 OFFCURVE",
"-529 386 CURVE",
"-535 393 OFFCURVE",
"-541 402 OFFCURVE",
"-541 402 CURVE",
"-541 404 OFFCURVE",
"-531 414 OFFCURVE",
"-529 414 CURVE",
"-528 414 OFFCURVE",
"-519 407 OFFCURVE",
"-511 398 CURVE",
"-495 381 LINE",
"-486 387 LINE",
"-483 391 OFFCURVE",
"-477 397 OFFCURVE",
"-474 401 CURVE",
"-468 407 LINE",
"-475 416 LINE",
"-485 430 OFFCURVE",
"-489 442 OFFCURVE",
"-487 457 CURVE",
"-486 474 OFFCURVE",
"-480 486 OFFCURVE",
"-466 500 CURVE",
"-457 510 OFFCURVE",
"-449 516 OFFCURVE",
"-436 521 CURVE",
"-416 532 OFFCURVE",
"-402 533 OFFCURVE",
"-382 526 CURVE"
);
},
{
closed = 1;
nodes = (
"-438 478 OFFCURVE",
"-444 458 OFFCURVE",
"-432 432 CURVE",
"-428 424 OFFCURVE",
"-425 421 OFFCURVE",
"-421 420 CURVE",
"-408 418 OFFCURVE",
"-390 426 OFFCURVE",
"-384 437 CURVE",
"-380 443 OFFCURVE",
"-379 448 OFFCURVE",
"-379 461 CURVE",
"-379 481 OFFCURVE",
"-383 488 OFFCURVE",
"-393 495 CURVE",
"-401 500 OFFCURVE",
"-404 499 OFFCURVE",
"-413 493 CURVE"
);
}
);
width = 0;
}
);
unicode = 005B;
},
{
glyphname = bracketright;
lastChange = "2019-04-16 18:00:57 +0000";
layers = (
{
layerId = "C0F12C34-0F87-4A08-A93A-59AC8BF14692";
paths = (
{
closed = 1;
nodes = (
"-695 -298 OFFCURVE",
"-711 -286 OFFCURVE",
"-718 -269 CURVE",
"-724 -256 OFFCURVE",
"-724 -228 OFFCURVE",
"-718 -216 CURVE",
"-710 -199 OFFCURVE",
"-687 -182 OFFCURVE",
"-659 -174 CURVE",
"-646 -171 OFFCURVE",
"-640 -171 OFFCURVE",
"-623 -171 CURVE",
"-608 -172 OFFCURVE",
"-604 -171 OFFCURVE",
"-601 -168 CURVE",
"-598 -163 OFFCURVE",
"-582 -140 OFFCURVE",
"-583 -140 CURVE",
"-583 -139 OFFCURVE",
"-588 -135 OFFCURVE",
"-594 -132 CURVE",
"-609 -123 OFFCURVE",
"-618 -115 OFFCURVE",
"-618 -110 CURVE",
"-618 -107 OFFCURVE",
"-617 -104 OFFCURVE",
"-615 -101 CURVE",
"-610 -92 OFFCURVE",
"-604 -93 OFFCURVE",
"-584 -107 CURVE",
"-569 -120 LINE",
"-564 -111 LINE",
"-555 -97 OFFCURVE",
"-548 -92 OFFCURVE",
"-537 -90 CURVE",
"-529 -89 OFFCURVE",
"-529 -89 OFFCURVE",
"-520 -99 CURVE",
"-515 -105 OFFCURVE",
"-511 -110 OFFCURVE",
"-511 -111 CURVE",
"-511 -112 OFFCURVE",
"-516 -118 OFFCURVE",
"-524 -126 CURVE",
"-538 -140 OFFCURVE",
"-541 -145 OFFCURVE",
"-537 -150 CURVE",
"-536 -151 OFFCURVE",
"-529 -159 OFFCURVE",
"-521 -167 CURVE",
"-515 -174 OFFCURVE",
"-509 -183 OFFCURVE",
"-509 -183 CURVE",
"-509 -185 OFFCURVE",
"-519 -195 OFFCURVE",
"-521 -195 CURVE",
"-522 -195 OFFCURVE",
"-531 -188 OFFCURVE",
"-539 -179 CURVE",
"-555 -162 LINE",
"-564 -168 LINE",
"-567 -172 OFFCURVE",
"-573 -178 OFFCURVE",
"-576 -182 CURVE",
"-582 -188 LINE",
"-575 -197 LINE",
"-565 -211 OFFCURVE",
"-561 -223 OFFCURVE",
"-563 -238 CURVE",
"-564 -255 OFFCURVE",
"-570 -267 OFFCURVE",
"-584 -281 CURVE",
"-593 -291 OFFCURVE",
"-601 -297 OFFCURVE",
"-614 -302 CURVE",
"-634 -313 OFFCURVE",
"-648 -314 OFFCURVE",
"-668 -307 CURVE"
);
},
{
closed = 1;
nodes = (
"-612 -259 OFFCURVE",
"-606 -239 OFFCURVE",
"-618 -213 CURVE",
"-622 -205 OFFCURVE",
"-625 -202 OFFCURVE",
"-629 -201 CURVE",
"-642 -199 OFFCURVE",
"-660 -207 OFFCURVE",
"-666 -218 CURVE",
"-670 -224 OFFCURVE",
"-671 -229 OFFCURVE",
"-671 -242 CURVE",
"-671 -262 OFFCURVE",
"-667 -269 OFFCURVE",
"-657 -276 CURVE",
"-649 -281 OFFCURVE",
"-646 -280 OFFCURVE",
"-637 -274 CURVE"
);
}
);
width = 0;
}
);
unicode = 005D;
},
{
glyphname = hyphen;
lastChange = "2019-04-16 18:00:57 +0000";
layers = (
{
layerId = "C0F12C34-0F87-4A08-A93A-59AC8BF14692";
paths = (
{
closed = 1;
nodes = (
"-424 257 OFFCURVE",
"-423 260 OFFCURVE",
"-410 271 CURVE",
"-401 278 OFFCURVE",
"-375 292 OFFCURVE",
"-350 302 CURVE",
"-324 314 OFFCURVE",
"-307 323 OFFCURVE",
"-309 330 CURVE SMOOTH",
"-319 364 OFFCURVE",
"-306 407 OFFCURVE",
"-277 422 CURVE SMOOTH",
"-238 442 OFFCURVE",
"-140 436 OFFCURVE",
"-112 413 CURVE",
"-101 402 OFFCURVE",
"-97 395 OFFCURVE",
"-97 373 CURVE SMOOTH",
"-97 316 OFFCURVE",
"-132 288 OFFCURVE",
"-206 288 CURVE SMOOTH",
"-229 288 OFFCURVE",
"-259 289 OFFCURVE",
"-272 292 CURVE",
"-295 296 OFFCURVE",
"-297 295 OFFCURVE",
"-339 264 CURVE SMOOTH",
"-390 227 OFFCURVE",
"-409 222 OFFCURVE",
"-419 245 CURVE SMOOTH"
);
},
{
closed = 1;
nodes = (
"-179 333 OFFCURVE",
"-158 355 OFFCURVE",
"-158 372 CURVE SMOOTH",
"-158 397 OFFCURVE",
"-229 407 OFFCURVE",
"-250 386 CURVE",
"-265 373 OFFCURVE",
"-269 351 OFFCURVE",
"-261 341 CURVE",
"-251 331 OFFCURVE",
"-234 321 OFFCURVE",
"-223 324 CURVE",
"-220 326 OFFCURVE",
"-207 329 OFFCURVE",
"-199 331 CURVE"
);
}
);
width = 0;
}
);
unicode = 002D;
},
{
glyphname = dollar;
lastChange = "2019-04-16 18:00:57 +0000";
layers = (
{
layerId = "C0F12C34-0F87-4A08-A93A-59AC8BF14692";
paths = (
{
closed = 1;
nodes = (
"-354 250 OFFCURVE",
"-355 254 OFFCURVE",
"-350 258 CURVE",
"-346 260 OFFCURVE",
"-343 261 OFFCURVE",
"-328 262 CURVE",
"-309 263 LINE",
"-281 334 LINE",
"-265 373 OFFCURVE",
"-252 407 OFFCURVE",
"-250 409 CURVE",
"-249 412 OFFCURVE",
"-246 413 OFFCURVE",
"-243 413 CURVE",
"-239 413 OFFCURVE",
"-237 412 OFFCURVE",
"-234 405 CURVE",
"-231 400 OFFCURVE",
"-224 379 OFFCURVE",
"-216 357 CURVE",
"-193 284 OFFCURVE",
"-186 265 OFFCURVE",
"-174 245 CURVE",
"-170 240 OFFCURVE",
"-168 234 OFFCURVE",
"-168 232 CURVE",
"-169 231 OFFCURVE",
"-184 231 OFFCURVE",
"-252 231 CURVE",
"-333 231 LINE",
"-343 240 LINE"
);
},
{
closed = 1;
nodes = (
"-231 274 OFFCURVE",
"-242 332 OFFCURVE",
"-243 333 CURVE",
"-245 334 OFFCURVE",
"-270 280 OFFCURVE",
"-270 274 CURVE",
"-270 270 LINE",
"-252 272 LINE",
"-242 272 OFFCURVE",
"-233 273 OFFCURVE",
"-232 273 CURVE"
);
}
);
width = 0;
}
);
unicode = 0024;
},
{
glyphname = greater;
lastChange = "2019-04-16 18:00:57 +0000";
layers = (
{
layerId = "C0F12C34-0F87-4A08-A93A-59AC8BF14692";
paths = (
{
closed = 1;
nodes = (
"-395 -177 OFFCURVE",
"-390 -176 OFFCURVE",
"-384 -176 CURVE",
"-377 -176 OFFCURVE",
"-374 -177 OFFCURVE",
"-371 -179 CURVE",
"-367 -182 OFFCURVE",
"-367 -183 OFFCURVE",
"-367 -201 CURVE",
"-367 -219 LINE",
"-349 -219 LINE",
"-331 -219 LINE",
"-328 -224 LINE",
"-323 -231 OFFCURVE",
"-318 -243 OFFCURVE",
"-320 -245 CURVE",
"-321 -245 OFFCURVE",
"-331 -246 OFFCURVE",
"-343 -245 CURVE",
"-365 -245 LINE",
"-365 -259 LINE",
"-365 -273 LINE",
"-351 -281 LINE",
"-335 -289 OFFCURVE",
"-320 -301 OFFCURVE",
"-315 -311 CURVE",
"-305 -333 OFFCURVE",
"-325 -375 OFFCURVE",
"-348 -382 CURVE",
"-352 -383 OFFCURVE",
"-364 -384 OFFCURVE",
"-374 -384 CURVE",
"-394 -384 LINE",
"-408 -377 LINE",
"-426 -368 OFFCURVE",
"-436 -360 OFFCURVE",
"-441 -349 CURVE",
"-445 -342 OFFCURVE",
"-445 -339 OFFCURVE",
"-445 -327 CURVE",
"-445 -314 OFFCURVE",
"-445 -312 OFFCURVE",
"-441 -303 CURVE",
"-434 -289 OFFCURVE",
"-421 -279 OFFCURVE",
"-403 -275 CURVE",
"-396 -273 OFFCURVE",
"-396 -273 OFFCURVE",
"-395 -265 CURVE",
"-395 -261 OFFCURVE",
"-394 -254 OFFCURVE",
"-394 -251 CURVE",
"-394 -244 LINE",
"-414 -244 LINE",
"-434 -243 LINE",
"-439 -234 LINE",
"-442 -228 OFFCURVE",
"-444 -223 OFFCURVE",
"-443 -221 CURVE",
"-443 -220 OFFCURVE",
"-438 -219 OFFCURVE",
"-420 -219 CURVE",
"-398 -219 LINE",
"-398 -200 LINE",
"-398 -186 OFFCURVE",
"-397 -179 OFFCURVE",
"-396 -178 CURVE"
);
},
{
closed = 1;
nodes = (
"-374 -301 OFFCURVE",
"-378 -299 OFFCURVE",
"-383 -299 CURVE",
"-389 -298 OFFCURVE",
"-390 -298 OFFCURVE",
"-393 -303 CURVE",
"-400 -315 OFFCURVE",
"-401 -335 OFFCURVE",
"-394 -345 CURVE",
"-392 -347 OFFCURVE",
"-387 -352 OFFCURVE",
"-383 -354 CURVE",
"-375 -358 OFFCURVE",
"-374 -358 OFFCURVE",
"-368 -357 CURVE",
"-361 -355 OFFCURVE",
"-354 -348 OFFCURVE",
"-354 -342 CURVE",
"-354 -332 OFFCURVE",
"-363 -311 OFFCURVE",
"-371 -304 CURVE"
);
}
);
width = 0;
}
);
unicode = 003E;
},
{
glyphname = less;
lastChange = "2019-04-16 18:00:57 +0000";
layers = (
{
layerId = "C0F12C34-0F87-4A08-A93A-59AC8BF14692";
paths = (
{
closed = 1;
nodes = (
"-397 -381 OFFCURVE",
"-398 -374 OFFCURVE",
"-398 -360 CURVE",
"-398 -341 LINE",
"-420 -341 LINE",
"-438 -341 OFFCURVE",
"-443 -340 OFFCURVE",
"-443 -339 CURVE",
"-444 -337 OFFCURVE",
"-442 -332 OFFCURVE",
"-439 -326 CURVE",
"-434 -317 LINE",
"-414 -316 LINE",
"-394 -316 LINE",
"-394 -309 LINE",
"-394 -306 OFFCURVE",
"-395 -299 OFFCURVE",
"-395 -295 CURVE",
"-396 -287 OFFCURVE",
"-396 -287 OFFCURVE",
"-403 -285 CURVE",
"-421 -281 OFFCURVE",
"-434 -271 OFFCURVE",
"-441 -257 CURVE",
"-445 -248 OFFCURVE",
"-445 -246 OFFCURVE",
"-445 -233 CURVE",
"-445 -221 OFFCURVE",
"-445 -218 OFFCURVE",
"-441 -211 CURVE",
"-436 -200 OFFCURVE",
"-426 -192 OFFCURVE",
"-408 -183 CURVE",
"-394 -176 LINE",
"-374 -176 LINE",
"-364 -176 OFFCURVE",
"-352 -177 OFFCURVE",
"-348 -178 CURVE",
"-325 -185 OFFCURVE",
"-305 -227 OFFCURVE",
"-315 -249 CURVE",
"-320 -259 OFFCURVE",
"-335 -271 OFFCURVE",
"-351 -279 CURVE",
"-365 -287 LINE",
"-365 -301 LINE",
"-365 -315 LINE",
"-343 -315 LINE",
"-331 -314 OFFCURVE",
"-321 -315 OFFCURVE",
"-320 -315 CURVE",
"-318 -317 OFFCURVE",
"-323 -329 OFFCURVE",
"-328 -336 CURVE",
"-331 -341 LINE",
"-349 -341 LINE",
"-367 -341 LINE",
"-367 -359 LINE",
"-367 -377 OFFCURVE",
"-367 -378 OFFCURVE",
"-371 -381 CURVE",
"-374 -383 OFFCURVE",
"-377 -384 OFFCURVE",
"-384 -384 CURVE",
"-390 -384 OFFCURVE",
"-395 -383 OFFCURVE",
"-396 -382 CURVE"
);
},
{
closed = 1;
nodes = (
"-363 -249 OFFCURVE",
"-354 -228 OFFCURVE",
"-354 -218 CURVE",
"-354 -212 OFFCURVE",
"-361 -205 OFFCURVE",
"-368 -203 CURVE",
"-374 -202 OFFCURVE",
"-375 -202 OFFCURVE",
"-383 -206 CURVE",
"-387 -208 OFFCURVE",
"-392 -213 OFFCURVE",
"-394 -215 CURVE",
"-401 -225 OFFCURVE",
"-400 -245 OFFCURVE",
"-393 -257 CURVE",
"-390 -262 OFFCURVE",
"-389 -262 OFFCURVE",
"-383 -261 CURVE",
"-378 -261 OFFCURVE",
"-374 -259 OFFCURVE",
"-371 -256 CURVE"
);
}
);
width = 0;
}
);
unicode = 003C;
},
{
glyphname = percent;
lastChange = "2019-04-16 18:00:57 +0000";
layers = (
{
layerId = "C0F12C34-0F87-4A08-A93A-59AC8BF14692";
paths = (
{
closed = 1;
nodes = (
"-351 234 OFFCURVE",
"-352 237 OFFCURVE",
"-353 240 CURVE",
"-354 243 OFFCURVE",
"-353 245 OFFCURVE",
"-347 254 CURVE",
"-338 267 OFFCURVE",
"-329 283 OFFCURVE",
"-329 290 CURVE",
"-329 293 OFFCURVE",
"-331 305 OFFCURVE",
"-338 335 CURVE",
"-347 368 OFFCURVE",
"-348 378 OFFCURVE",
"-348 385 CURVE",
"-348 394 LINE",
"-343 398 LINE",
"-338 404 OFFCURVE",
"-325 410 OFFCURVE",
"-307 413 CURVE",
"-292 416 OFFCURVE",
"-292 416 OFFCURVE",
"-288 412 CURVE",
"-286 410 LINE",
"-289 384 LINE",
"-292 366 OFFCURVE",
"-292 359 OFFCURVE",
"-292 356 CURVE",
"-291 355 OFFCURVE",
"-290 353 OFFCURVE",
"-290 353 CURVE",
"-290 353 OFFCURVE",
"-269 361 OFFCURVE",
"-245 369 CURVE",
"-201 384 OFFCURVE",
"-200 384 OFFCURVE",
"-192 384 CURVE",
"-184 384 OFFCURVE",
"-183 384 OFFCURVE",
"-181 380 CURVE",
"-179 376 OFFCURVE",
"-176 362 OFFCURVE",
"-177 356 CURVE",
"-178 352 OFFCURVE",
"-183 345 OFFCURVE",
"-189 342 CURVE",
"-191 341 OFFCURVE",
"-197 340 OFFCURVE",
"-201 339 CURVE",
"-213 338 OFFCURVE",
"-282 315 OFFCURVE",
"-285 310 CURVE",
"-286 310 OFFCURVE",
"-286 309 OFFCURVE",
"-287 308 CURVE",
"-287 305 OFFCURVE",
"-287 305 OFFCURVE",
"-284 304 CURVE",
"-276 301 OFFCURVE",
"-251 296 OFFCURVE",
"-222 291 CURVE",
"-180 284 OFFCURVE",
"-180 283 OFFCURVE",
"-176 279 CURVE",
"-171 273 OFFCURVE",
"-170 268 OFFCURVE",
"-170 259 CURVE",
"-170 250 OFFCURVE",
"-170 250 OFFCURVE",
"-174 246 CURVE",
"-176 243 OFFCURVE",
"-178 243 OFFCURVE",
"-182 243 CURVE",
"-185 243 OFFCURVE",
"-207 248 OFFCURVE",
"-233 254 CURVE",
"-257 259 OFFCURVE",
"-278 264 OFFCURVE",
"-278 264 CURVE",
"-279 264 OFFCURVE",
"-280 262 OFFCURVE",
"-281 259 CURVE",
"-283 250 OFFCURVE",
"-292 241 OFFCURVE",
"-302 236 CURVE",
"-314 231 OFFCURVE",
"-323 228 OFFCURVE",
"-335 228 CURVE",
"-346 228 OFFCURVE",
"-347 229 OFFCURVE",
"-349 232 CURVE"
);
}
);
width = 0;
}
);
unicode = 0025;
},
{
glyphname = at;
lastChange = "2019-04-16 18:00:57 +0000";
layers = (
{
layerId = "C0F12C34-0F87-4A08-A93A-59AC8BF14692";
paths = (
{
closed = 1;
nodes = (
"-229 222 OFFCURVE",
"-221 225 OFFCURVE",
"-216 230 CURVE",
"-211 235 OFFCURVE",
"-206 244 OFFCURVE",
"-204 252 CURVE",
"-202 262 OFFCURVE",
"-203 265 OFFCURVE",
"-211 284 CURVE",
"-219 301 OFFCURVE",
"-219 302 OFFCURVE",
"-227 309 CURVE",
"-231 312 OFFCURVE",
"-241 321 OFFCURVE",
"-246 326 CURVE",
"-254 330 OFFCURVE",
"-259 335 OFFCURVE",
"-259 335 CURVE",
"-259 337 OFFCURVE",
"-246 339 OFFCURVE",
"-231 341 CURVE",
"-214 344 OFFCURVE",
"-204 353 OFFCURVE",
"-199 372 CURVE",
"-195 391 OFFCURVE",
"-202 406 OFFCURVE",
"-219 414 CURVE",
"-244 427 OFFCURVE",
"-271 423 OFFCURVE",
"-288 406 CURVE",
"-295 400 OFFCURVE",
"-302 386 OFFCURVE",
"-306 377 CURVE",
"-306 373 OFFCURVE",
"-308 369 OFFCURVE",
"-309 368 CURVE",
"-309 368 OFFCURVE",
"-313 366 OFFCURVE",
"-318 365 CURVE",
"-327 362 OFFCURVE",
"-329 360 OFFCURVE",
"-329 354 CURVE",
"-329 352 OFFCURVE",
"-329 349 OFFCURVE",
"-328 347 CURVE",
"-325 344 OFFCURVE",
"-318 338 OFFCURVE",
"-311 336 CURVE",
"-306 335 OFFCURVE",
"-306 333 OFFCURVE",
"-306 332 CURVE",
"-307 331 OFFCURVE",
"-308 323 OFFCURVE",
"-308 305 CURVE",
"-308 283 OFFCURVE",
"-308 278 OFFCURVE",
"-306 262 CURVE",
"-302 244 OFFCURVE",
"-299 235 OFFCURVE",
"-292 225 CURVE",
"-286 216 OFFCURVE",
"-284 216 OFFCURVE",
"-268 216 CURVE",
"-257 216 OFFCURVE",
"-252 216 OFFCURVE",
"-243 219 CURVE"
);
},
{
closed = 1;
nodes = (
"-269 257 OFFCURVE",
"-270 261 OFFCURVE",
"-270 262 CURVE",
"-272 269 OFFCURVE",
"-272 300 OFFCURVE",
"-270 302 CURVE",
"-269 303 OFFCURVE",
"-264 300 OFFCURVE",
"-258 295 CURVE",
"-250 287 OFFCURVE",
"-246 280 OFFCURVE",
"-246 267 CURVE",
"-245 258 OFFCURVE",
"-245 257 OFFCURVE",
"-248 255 CURVE",
"-250 252 OFFCURVE",
"-251 252 OFFCURVE",
"-258 252 CURVE",
"-265 252 OFFCURVE",
"-266 252 OFFCURVE",
"-268 255 CURVE"
);
},
{
closed = 1;
nodes = (
"-294 367 OFFCURVE",
"-292 371 OFFCURVE",
"-289 374 CURVE",
"-285 377 OFFCURVE",
"-282 382 OFFCURVE",
"-267 387 CURVE",
"-255 391 OFFCURVE",
"-252 391 OFFCURVE",
"-245 391 CURVE",
"-237 391 OFFCURVE",
"-237 391 OFFCURVE",
"-233 388 CURVE",
"-229 383 OFFCURVE",
"-228 380 OFFCURVE",
"-231 377 CURVE",
"-233 372 OFFCURVE",
"-242 368 OFFCURVE",
"-253 366 CURVE",
"-262 365 OFFCURVE",
"-291 364 OFFCURVE",
"-292 365 CURVE"
);
}
);
width = 0;
}
);
unicode = 0040;
},
{
glyphname = ampersand;
lastChange = "2019-04-16 18:00:57 +0000";
layers = (
{
layerId = "C0F12C34-0F87-4A08-A93A-59AC8BF14692";
paths = (
{
closed = 1;
nodes = (
"-266 247 OFFCURVE",
"-268 252 OFFCURVE",
"-271 256 CURVE",
"-275 264 OFFCURVE",
"-284 291 OFFCURVE",
"-285 297 CURVE",
"-287 303 OFFCURVE",
"-298 316 OFFCURVE",
"-310 325 CURVE",
"-318 331 OFFCURVE",
"-330 338 OFFCURVE",
"-338 340 CURVE",
"-344 342 OFFCURVE",
"-345 344 OFFCURVE",
"-343 360 CURVE",
"-343 379 OFFCURVE",
"-340 386 OFFCURVE",
"-332 395 CURVE",
"-328 399 OFFCURVE",
"-324 402 OFFCURVE",
"-320 403 CURVE",
"-316 404 OFFCURVE",
"-315 404 OFFCURVE",
"-309 401 CURVE",
"-292 392 OFFCURVE",
"-268 359 OFFCURVE",
"-264 339 CURVE",
"-261 323 OFFCURVE",
"-259 315 OFFCURVE",
"-258 316 CURVE",
"-258 316 OFFCURVE",
"-257 319 OFFCURVE",
"-256 322 CURVE",
"-252 335 OFFCURVE",
"-236 362 OFFCURVE",
"-217 387 CURVE",
"-209 399 LINE",
"-202 398 LINE",
"-192 398 OFFCURVE",
"-189 395 OFFCURVE",
"-182 386 CURVE",
"-180 381 OFFCURVE",
"-179 379 OFFCURVE",
"-179 375 CURVE",
"-179 369 OFFCURVE",
"-180 367 OFFCURVE",
"-199 336 CURVE",
"-215 312 OFFCURVE",
"-222 300 OFFCURVE",
"-226 289 CURVE",
"-234 270 OFFCURVE",
"-244 251 OFFCURVE",
"-248 246 CURVE",
"-254 240 OFFCURVE",
"-257 240 OFFCURVE",
"-263 246 CURVE"
);
}
);
width = 0;
}
);
unicode = 0026;
},
{
glyphname = asciicircum;
lastChange = "2019-04-16 18:00:57 +0000";
layers = (
{
layerId = "C0F12C34-0F87-4A08-A93A-59AC8BF14692";
paths = (
{
closed = 1;
nodes = (
"-341 248 OFFCURVE",
"-342 254 OFFCURVE",
"-338 267 CURVE",
"-332 287 OFFCURVE",
"-314 314 OFFCURVE",
"-286 348 CURVE",
"-275 361 LINE",
"-286 361 LINE",
"-338 366 OFFCURVE",
"-361 371 OFFCURVE",
"-366 380 CURVE",
"-367 382 OFFCURVE",
"-367 383 OFFCURVE",
"-365 385 CURVE",
"-363 388 OFFCURVE",
"-355 391 OFFCURVE",
"-344 394 CURVE",
"-338 395 OFFCURVE",
"-338 397 OFFCURVE",
"-333 403 CURVE",
"-328 409 OFFCURVE",
"-320 415 OFFCURVE",
"-315 415 CURVE",
"-314 415 OFFCURVE",
"-311 414 OFFCURVE",
"-310 410 CURVE",
"-308 408 OFFCURVE",
"-306 404 OFFCURVE",
"-303 403 CURVE",
"-296 398 OFFCURVE",
"-278 397 OFFCURVE",
"-264 400 CURVE",
"-245 404 OFFCURVE",
"-201 405 OFFCURVE",
"-187 402 CURVE",
"-180 400 OFFCURVE",
"-178 399 OFFCURVE",
"-174 395 CURVE",
"-168 389 OFFCURVE",
"-168 385 OFFCURVE",
"-172 376 CURVE",
"-177 367 OFFCURVE",
"-199 345 OFFCURVE",
"-219 329 CURVE",
"-243 311 OFFCURVE",
"-272 283 OFFCURVE",
"-272 278 CURVE",
"-272 278 OFFCURVE",
"-269 278 OFFCURVE",
"-264 281 CURVE",
"-248 288 OFFCURVE",
"-230 290 OFFCURVE",
"-215 287 CURVE",
"-201 283 OFFCURVE",
"-185 272 OFFCURVE",
"-173 258 CURVE",
"-167 251 OFFCURVE",
"-157 237 OFFCURVE",
"-157 236 CURVE",
"-157 236 OFFCURVE",
"-159 234 OFFCURVE",
"-162 232 CURVE",
"-170 229 OFFCURVE",
"-175 229 OFFCURVE",
"-202 231 CURVE",
"-220 232 LINE",
"-231 238 LINE",
"-257 252 OFFCURVE",
"-259 252 OFFCURVE",
"-296 239 CURVE",
"-311 234 OFFCURVE",
"-325 230 OFFCURVE",
"-326 230 CURVE",
"-326 230 OFFCURVE",
"-329 232 OFFCURVE",
"-332 235 CURVE"
);
}
);
width = 0;
}
);
unicode = 005E;
},
{
export = 0;
glyphname = jumpfour;
lastChange = "2019-04-16 18:00:57 +0000";
layers = (
{
layerId = "C0F12C34-0F87-4A08-A93A-59AC8BF14692";
paths = (
{
closed = 1;
nodes = (
"1268 -22 OFFCURVE",
"1234 -17 OFFCURVE",
"1209 -15 CURVE",
"1181 -10 OFFCURVE",
"1122 -7 OFFCURVE",
"1071 -3 CURVE",
"1051 -2 OFFCURVE",
"1024 -1 OFFCURVE",
"1010 0 CURVE",
"996 1 OFFCURVE",
"975 1 OFFCURVE",
"953 -1 CURVE",
"934 -2 OFFCURVE",
"896 -2 OFFCURVE",
"869 -3 CURVE",
"841 -5 OFFCURVE",
"800 -6 OFFCURVE",
"777 -8 CURVE",
"638 -15 OFFCURVE",
"408 -17 OFFCURVE",
"356 -13 CURVE",
"211 -2 OFFCURVE",
"127 11 OFFCURVE",
"115 22 CURVE",
"113 24 OFFCURVE",
"109 27 OFFCURVE",
"103 30 CURVE",
"90 37 OFFCURVE",
"72 52 OFFCURVE",
"50 72 CURVE",
"30 92 LINE",
"30 100 LINE",
"30 111 OFFCURVE",
"34 114 OFFCURVE",
"49 110 CURVE",
"67 105 OFFCURVE",
"104 99 OFFCURVE",
"131 95 CURVE",
"149 93 OFFCURVE",
"190 92 OFFCURVE",
"282 89 CURVE",
"439 86 OFFCURVE",
"502 87 OFFCURVE",
"620 92 CURVE",
"698 96 OFFCURVE",
"737 97 OFFCURVE",
"860 97 CURVE",
"941 96 OFFCURVE",
"1015 95 OFFCURVE",
"1024 94 CURVE",
"1104 85 OFFCURVE",
"1222 39 OFFCURVE",
"1267 -3 CURVE",
"1276 -12 OFFCURVE",
"1276 -13 OFFCURVE",
"1275 -18 CURVE",
"1274 -23 OFFCURVE",
"1270 -26 OFFCURVE",
"1269 -23 CURVE"
);
},
{
closed = 1;
nodes = (
"1076 177 OFFCURVE",
"1056 185 OFFCURVE",
"1008 209 CURVE",
"966 229 LINE",
"942 230 LINE",
"903 231 OFFCURVE",
"893 236 OFFCURVE",
"891 251 CURVE",
"890 270 OFFCURVE",
"903 283 OFFCURVE",
"936 293 CURVE",
"973 305 OFFCURVE",
"1056 347 OFFCURVE",
"1085 369 CURVE",
"1125 398 OFFCURVE",
"1169 479 OFFCURVE",
"1187 561 CURVE",
"1202 625 OFFCURVE",
"1220 691 OFFCURVE",
"1232 724 CURVE",
"1241 746 OFFCURVE",
"1250 757 OFFCURVE",
"1269 766 CURVE",
"1285 773 OFFCURVE",
"1302 776 OFFCURVE",
"1315 772 CURVE",
"1324 770 OFFCURVE",
"1336 759 OFFCURVE",
"1340 751 CURVE",
"1342 747 OFFCURVE",
"1342 745 OFFCURVE",
"1338 740 CURVE",
"1318 716 OFFCURVE",
"1309 695 OFFCURVE",
"1306 665 CURVE",
"1302 643 OFFCURVE",
"1293 600 OFFCURVE",
"1282 565 CURVE",
"1269 518 OFFCURVE",
"1257 492 OFFCURVE",
"1241 474 CURVE",
"1236 467 OFFCURVE",
"1225 452 OFFCURVE",
"1216 437 CURVE",
"1187 387 OFFCURVE",
"1153 345 OFFCURVE",
"1124 318 CURVE",
"1109 305 OFFCURVE",
"1105 302 OFFCURVE",
"1069 285 CURVE",
"1048 275 OFFCURVE",
"1028 267 OFFCURVE",
"1024 266 CURVE",
"1016 265 OFFCURVE",
"1018 263 OFFCURVE",
"1036 257 CURVE",
"1062 247 OFFCURVE",
"1080 239 OFFCURVE",
"1092 224 CURVE",
"1112 203 OFFCURVE",
"1123 172 OFFCURVE",
"1113 167 CURVE",
"1108 165 OFFCURVE",
"1109 165 OFFCURVE",
"1094 170 CURVE"
);
}
);
width = 1284;
}
);
},
{
export = 0;
glyphname = jumptwo;
lastChange = "2019-04-16 18:00:57 +0000";
layers = (
{
layerId = "C0F12C34-0F87-4A08-A93A-59AC8BF14692";
paths = (
{
closed = 1;
nodes = (
"1237 -11 OFFCURVE",
"1149 -3 OFFCURVE",
"1056 3 CURVE",
"964 9 OFFCURVE",
"885 7 OFFCURVE",
"749 -3 CURVE",
"568 -16 OFFCURVE",
"239 -4 OFFCURVE",
"151 20 CURVE",
"127 26 OFFCURVE",
"88 53 OFFCURVE",
"59 83 CURVE",
"37 106 LINE",
"46 115 LINE",
"53 123 OFFCURVE",
"58 124 OFFCURVE",
"66 121 CURVE",
"72 118 OFFCURVE",
"98 113 OFFCURVE",
"123 108 CURVE",
"162 102 OFFCURVE",
"199 101 OFFCURVE",
"396 102 CURVE",
"521 102 OFFCURVE",
"717 103 OFFCURVE",
"831 103 CURVE",
"1038 104 LINE",
"1081 91 LINE",
"1166 66 OFFCURVE",
"1260 11 OFFCURVE",
"1253 -10 CURVE",
"1250 -16 OFFCURVE",
"1244 -19 OFFCURVE",
"1240 -15 CURVE"
);
},
{
closed = 1;
nodes = (
"712 202 OFFCURVE",
"682 211 OFFCURVE",
"661 226 CURVE",
"648 235 OFFCURVE",
"630 270 OFFCURVE",
"617 309 CURVE",
"609 333 OFFCURVE",
"606 337 OFFCURVE",
"595 339 CURVE",
"588 341 OFFCURVE",
"585 343 OFFCURVE",
"585 348 CURVE",
"585 355 OFFCURVE",
"589 355 OFFCURVE",
"623 354 CURVE",
"682 350 OFFCURVE",
"709 345 OFFCURVE",
"726 332 CURVE",
"755 312 OFFCURVE",
"766 294 OFFCURVE",
"779 248 CURVE",
"785 228 OFFCURVE",
"786 228 OFFCURVE",
"812 222 CURVE",
"829 218 OFFCURVE",
"830 218 OFFCURVE",
"830 214 CURVE",
"830 210 OFFCURVE",
"828 208 OFFCURVE",
"818 204 CURVE",
"806 198 LINE",
"781 197 LINE",
"768 197 OFFCURVE",
"753 197 OFFCURVE",
"750 198 CURVE"
);
},
{
closed = 1;
nodes = (
"484 211 OFFCURVE",
"448 226 OFFCURVE",
"435 243 CURVE",
"425 256 OFFCURVE",
"413 282 OFFCURVE",
"405 309 CURVE",
"396 334 OFFCURVE",
"396 334 OFFCURVE",
"389 338 CURVE",
"385 340 OFFCURVE",
"380 342 OFFCURVE",
"379 342 CURVE",
"377 342 OFFCURVE",
"375 343 OFFCURVE",
"373 345 CURVE",
"370 349 OFFCURVE",
"370 349 OFFCURVE",
"374 352 CURVE",
"377 355 OFFCURVE",
"380 355 OFFCURVE",
"398 354 CURVE",
"446 352 OFFCURVE",
"484 347 OFFCURVE",
"503 340 CURVE",
"513 336 OFFCURVE",
"529 323 OFFCURVE",
"538 312 CURVE",
"547 300 OFFCURVE",
"557 279 OFFCURVE",
"565 256 CURVE",
"573 233 OFFCURVE",
"574 233 OFFCURVE",
"599 227 CURVE",
"608 226 OFFCURVE",
"616 223 OFFCURVE",
"617 222 CURVE",
"619 219 OFFCURVE",
"616 215 OFFCURVE",
"605 210 CURVE",
"595 204 OFFCURVE",
"595 204 OFFCURVE",
"565 204 CURVE",
"548 204 OFFCURVE",
"530 205 OFFCURVE",
"523 205 CURVE"
);
}
);
width = 1284;
}
);
},
{
export = 0;
glyphname = ano;
lastChange = "2019-04-16 18:00:57 +0000";
layers = (
{
layerId = "C0F12C34-0F87-4A08-A93A-59AC8BF14692";
paths = (
{
closed = 1;
nodes = (
"595 193 OFFCURVE",
"530 197 OFFCURVE",
"479 194 CURVE",
"358 186 OFFCURVE",
"367 186 OFFCURVE",
"284 188 CURVE",
"186 190 OFFCURVE",
"162 193 OFFCURVE",
"101 212 CURVE",
"73 221 OFFCURVE",
"64 224 OFFCURVE",
"29 247 CURVE",
"-26 279 OFFCURVE",
"-55 310 OFFCURVE",
"-59 337 CURVE",
"-59 346 OFFCURVE",
"-59 352 OFFCURVE",
"-53 359 CURVE",
"-43 371 OFFCURVE",
"-27 378 OFFCURVE",
"0 379 CURVE",
"58 383 OFFCURVE",
"112 370 OFFCURVE",
"152 342 CURVE",
"166 334 OFFCURVE",
"183 318 OFFCURVE",
"189 311 CURVE",
"196 302 OFFCURVE",
"194 302 OFFCURVE",
"140 305 CURVE",
"88 310 OFFCURVE",
"75 310 OFFCURVE",
"65 303 CURVE",
"57 299 OFFCURVE",
"57 296 OFFCURVE",
"58 283 CURVE",
"60 273 OFFCURVE",
"67 262 OFFCURVE",
"74 258 CURVE",
"77 257 OFFCURVE",
"95 253 OFFCURVE",
"112 248 CURVE",
"157 237 OFFCURVE",
"164 237 OFFCURVE",
"272 250 CURVE",
"383 262 OFFCURVE",
"388 263 OFFCURVE",
"475 265 CURVE",
"558 269 OFFCURVE",
"565 269 OFFCURVE",
"595 259 CURVE",
"620 252 OFFCURVE",
"638 243 OFFCURVE",
"670 224 CURVE",
"696 209 OFFCURVE",
"701 206 OFFCURVE",
"711 194 CURVE",
"729 173 OFFCURVE",
"727 173 OFFCURVE",
"679 180 CURVE"
);
},
{
closed = 1;
nodes = (
"1319 -11 OFFCURVE",
"1231 -3 OFFCURVE",
"1138 3 CURVE",
"1046 9 OFFCURVE",
"967 7 OFFCURVE",
"831 -3 CURVE",
"650 -16 OFFCURVE",
"321 -4 OFFCURVE",
"233 20 CURVE",
"209 26 OFFCURVE",
"170 53 OFFCURVE",
"141 83 CURVE",
"119 106 LINE",
"128 115 LINE",
"135 123 OFFCURVE",
"140 124 OFFCURVE",
"148 121 CURVE",
"154 118 OFFCURVE",
"180 113 OFFCURVE",
"205 108 CURVE",
"244 102 OFFCURVE",
"281 101 OFFCURVE",
"478 102 CURVE",
"603 102 OFFCURVE",
"799 103 OFFCURVE",
"913 103 CURVE",
"1120 104 LINE",
"1163 91 LINE",
"1248 66 OFFCURVE",
"1342 11 OFFCURVE",
"1335 -10 CURVE",
"1332 -16 OFFCURVE",
"1326 -19 OFFCURVE",
"1322 -15 CURVE"
);
},
{
closed = 1;
nodes = (
"1047 162 OFFCURVE",
"1017 171 OFFCURVE",
"996 186 CURVE",
"983 195 OFFCURVE",
"965 230 OFFCURVE",
"952 269 CURVE",
"944 293 OFFCURVE",
"941 297 OFFCURVE",
"930 299 CURVE",
"923 301 OFFCURVE",
"920 303 OFFCURVE",
"920 308 CURVE",
"920 315 OFFCURVE",
"924 315 OFFCURVE",
"958 314 CURVE",
"1017 310 OFFCURVE",
"1044 305 OFFCURVE",
"1061 292 CURVE",
"1090 272 OFFCURVE",
"1101 254 OFFCURVE",
"1114 208 CURVE",
"1120 188 OFFCURVE",
"1121 188 OFFCURVE",
"1147 182 CURVE",
"1164 178 OFFCURVE",
"1165 178 OFFCURVE",
"1165 174 CURVE",
"1165 170 OFFCURVE",
"1163 168 OFFCURVE",
"1153 164 CURVE",
"1141 158 LINE",
"1116 157 LINE",
"1103 157 OFFCURVE",
"1088 157 OFFCURVE",
"1085 158 CURVE"
);
},
{
closed = 1;
nodes = (
"819 171 OFFCURVE",
"783 186 OFFCURVE",
"770 203 CURVE",
"760 216 OFFCURVE",
"748 242 OFFCURVE",
"740 269 CURVE",
"731 294 OFFCURVE",
"731 294 OFFCURVE",
"724 298 CURVE",
"720 300 OFFCURVE",
"715 302 OFFCURVE",
"714 302 CURVE",
"712 302 OFFCURVE",
"710 303 OFFCURVE",
"708 305 CURVE",
"705 309 OFFCURVE",
"705 309 OFFCURVE",
"709 312 CURVE",
"712 315 OFFCURVE",
"715 315 OFFCURVE",
"733 314 CURVE",
"781 312 OFFCURVE",
"819 307 OFFCURVE",
"838 300 CURVE",
"848 296 OFFCURVE",
"864 283 OFFCURVE",
"873 272 CURVE",
"882 260 OFFCURVE",
"892 239 OFFCURVE",
"900 216 CURVE",
"908 193 OFFCURVE",
"909 193 OFFCURVE",
"934 187 CURVE",
"943 186 OFFCURVE",
"951 183 OFFCURVE",
"952 182 CURVE",
"954 179 OFFCURVE",
"951 175 OFFCURVE",
"940 170 CURVE",
"930 164 OFFCURVE",
"930 164 OFFCURVE",
"900 164 CURVE",
"883 164 OFFCURVE",
"865 165 OFFCURVE",
"858 165 CURVE"
);
}
);
width = 1365;
}
);
},
{
export = 0;
glyphname = petaste;
lastChange = "2019-04-16 18:00:57 +0000";
layers = (
{
layerId = "C0F12C34-0F87-4A08-A93A-59AC8BF14692";
paths = (
{
closed = 1;
nodes = (
"625 -104 OFFCURVE",
"558 -93 OFFCURVE",
"470 -75 CURVE",
"413 -65 OFFCURVE",
"402 -62 OFFCURVE",
"366 -49 CURVE",
"206 8 OFFCURVE",
"109 54 OFFCURVE",
"71 94 CURVE",
"39 128 OFFCURVE",
"44 152 OFFCURVE",
"90 160 CURVE",
"115 164 OFFCURVE",
"220 164 OFFCURVE",
"265 158 CURVE",
"327 153 OFFCURVE",
"353 147 OFFCURVE",
"364 138 CURVE",
"372 132 OFFCURVE",
"372 126 OFFCURVE",
"365 119 CURVE",
"363 117 OFFCURVE",
"357 117 OFFCURVE",
"332 115 CURVE",
"302 113 OFFCURVE",
"289 111 OFFCURVE",
"286 107 CURVE",
"284 104 OFFCURVE",
"292 90 OFFCURVE",
"303 79 CURVE",
"318 60 OFFCURVE",
"346 40 OFFCURVE",
"380 25 CURVE",
"389 21 OFFCURVE",
"404 14 OFFCURVE",
"413 10 CURVE",
"439 -1 OFFCURVE",
"477 -14 OFFCURVE",
"525 -27 CURVE",
"625 -52 OFFCURVE",
"695 -59 OFFCURVE",
"790 -57 CURVE",
"851 -57 OFFCURVE",
"881 -52 OFFCURVE",
"915 -36 CURVE",
"934 -27 OFFCURVE",
"943 -17 OFFCURVE",
"950 -1 CURVE",
"957 11 OFFCURVE",
"958 13 OFFCURVE",
"958 28 CURVE",
"958 39 OFFCURVE",
"956 50 OFFCURVE",
"954 56 CURVE",
"946 81 OFFCURVE",
"923 105 OFFCURVE",
"890 122 CURVE",
"873 128 OFFCURVE",
"861 140 OFFCURVE",
"861 146 CURVE",
"861 151 OFFCURVE",
"870 155 OFFCURVE",
"883 157 CURVE",
"896 160 OFFCURVE",
"909 161 OFFCURVE",
"962 161 CURVE",
"1026 161 LINE",
"1044 157 LINE",
"1086 143 OFFCURVE",
"1114 123 OFFCURVE",
"1126 100 CURVE",
"1133 88 OFFCURVE",
"1135 46 OFFCURVE",
"1133 26 CURVE",
"1126 -11 OFFCURVE",
"1098 -44 OFFCURVE",
"1054 -66 CURVE",
"1044 -70 OFFCURVE",
"1036 -75 OFFCURVE",
"1035 -77 CURVE",
"1029 -85 OFFCURVE",
"974 -96 OFFCURVE",
"890 -106 CURVE",
"854 -111 OFFCURVE",
"845 -112 OFFCURVE",
"775 -111 CURVE",
"734 -111 OFFCURVE",
"693 -110 OFFCURVE",
"684 -109 CURVE"
);
},
{
closed = 1;
nodes = (
"1006 237 OFFCURVE",
"986 245 OFFCURVE",
"938 269 CURVE",
"896 289 LINE",
"872 290 LINE",
"833 291 OFFCURVE",
"823 296 OFFCURVE",
"821 311 CURVE",
"820 330 OFFCURVE",
"833 343 OFFCURVE",
"866 353 CURVE",
"903 365 OFFCURVE",
"986 407 OFFCURVE",
"1015 429 CURVE",
"1055 458 OFFCURVE",
"1099 539 OFFCURVE",
"1117 621 CURVE",
"1132 685 OFFCURVE",
"1150 751 OFFCURVE",
"1162 784 CURVE",
"1171 806 OFFCURVE",
"1180 817 OFFCURVE",
"1199 826 CURVE",
"1215 833 OFFCURVE",
"1232 836 OFFCURVE",
"1245 832 CURVE",
"1254 830 OFFCURVE",
"1266 819 OFFCURVE",
"1270 811 CURVE",
"1272 807 OFFCURVE",
"1272 805 OFFCURVE",
"1268 800 CURVE",
"1248 776 OFFCURVE",
"1239 755 OFFCURVE",
"1236 725 CURVE",
"1232 703 OFFCURVE",
"1223 660 OFFCURVE",
"1212 625 CURVE",
"1199 578 OFFCURVE",
"1187 552 OFFCURVE",
"1171 534 CURVE",
"1166 527 OFFCURVE",
"1155 512 OFFCURVE",
"1146 497 CURVE",
"1117 447 OFFCURVE",
"1083 405 OFFCURVE",
"1054 378 CURVE",
"1039 365 OFFCURVE",
"1035 362 OFFCURVE",
"999 345 CURVE",
"978 335 OFFCURVE",
"958 327 OFFCURVE",
"954 326 CURVE",
"946 325 OFFCURVE",
"948 323 OFFCURVE",
"966 317 CURVE",
"992 307 OFFCURVE",
"1010 299 OFFCURVE",
"1022 284 CURVE",
"1042 263 OFFCURVE",
"1053 232 OFFCURVE",
"1043 227 CURVE",
"1038 225 OFFCURVE",
"1039 225 OFFCURVE",
"1024 230 CURVE"
);
},
{
closed = 1;
nodes = (
"584 241 OFFCURVE",
"548 256 OFFCURVE",
"535 273 CURVE",
"525 286 OFFCURVE",
"513 312 OFFCURVE",
"505 339 CURVE",
"496 364 OFFCURVE",
"496 364 OFFCURVE",
"489 368 CURVE",
"485 370 OFFCURVE",
"480 372 OFFCURVE",
"479 372 CURVE",
"477 372 OFFCURVE",
"475 373 OFFCURVE",
"473 375 CURVE",
"470 379 OFFCURVE",
"470 379 OFFCURVE",
"474 382 CURVE",
"477 385 OFFCURVE",
"480 385 OFFCURVE",
"498 384 CURVE",
"546 382 OFFCURVE",
"584 377 OFFCURVE",
"603 370 CURVE",
"613 366 OFFCURVE",
"629 353 OFFCURVE",
"638 342 CURVE",
"647 330 OFFCURVE",
"657 309 OFFCURVE",
"665 286 CURVE",
"673 263 OFFCURVE",
"674 263 OFFCURVE",
"699 257 CURVE",
"708 256 OFFCURVE",
"716 253 OFFCURVE",
"717 252 CURVE",
"719 249 OFFCURVE",
"716 245 OFFCURVE",
"705 240 CURVE",
"695 234 OFFCURVE",
"695 234 OFFCURVE",
"665 234 CURVE",
"648 234 OFFCURVE",
"630 235 OFFCURVE",
"623 235 CURVE"
);
}
);
width = 1301;
}
);
},
{
export = 0;
glyphname = yporroi;
lastChange = "2019-04-16 18:00:57 +0000";
layers = (
{
layerId = "C0F12C34-0F87-4A08-A93A-59AC8BF14692";
paths = (
{
closed = 1;
nodes = (
"149 -80 OFFCURVE",
"116 -71 OFFCURVE",
"89 -58 CURVE",
"71 -48 OFFCURVE",
"48 -34 OFFCURVE",
"43 -28 CURVE",
"39 -24 OFFCURVE",
"39 -24 OFFCURVE",
"43 -20 CURVE",
"46 -19 OFFCURVE",
"49 -17 OFFCURVE",
"52 -16 CURVE",
"54 -15 OFFCURVE",
"79 -17 OFFCURVE",
"105 -19 CURVE",
"133 -22 OFFCURVE",
"158 -24 OFFCURVE",
"161 -24 CURVE",
"167 -22 OFFCURVE",
"175 -14 OFFCURVE",
"175 -9 CURVE",
"175 -7 OFFCURVE",
"168 10 OFFCURVE",
"159 30 CURVE",
"137 79 OFFCURVE",
"130 99 OFFCURVE",
"130 111 CURVE",
"130 123 OFFCURVE",
"134 133 OFFCURVE",
"145 142 CURVE",
"160 154 OFFCURVE",
"164 155 OFFCURVE",
"225 156 CURVE",
"297 157 OFFCURVE",
"310 154 OFFCURVE",
"319 141 CURVE",
"325 132 OFFCURVE",
"325 121 OFFCURVE",
"318 112 CURVE",
"315 106 OFFCURVE",
"313 106 OFFCURVE",
"306 106 CURVE",
"302 106 OFFCURVE",
"290 108 OFFCURVE",
"279 109 CURVE",
"270 112 OFFCURVE",
"261 115 OFFCURVE",
"260 114 CURVE",
"257 111 OFFCURVE",
"265 91 OFFCURVE",
"286 49 CURVE",
"309 3 LINE",
"309 -19 LINE",
"311 -39 OFFCURVE",
"310 -40 OFFCURVE",
"306 -49 CURVE",
"291 -78 OFFCURVE",
"246 -92 OFFCURVE",
"182 -85 CURVE"
);
}
);
width = 373;
}
);
},
{
export = 0;
glyphname = synech;
lastChange = "2019-04-16 18:00:57 +0000";
layers = (
{
layerId = "C0F12C34-0F87-4A08-A93A-59AC8BF14692";
paths = (
{
closed = 1;
nodes = (
"548 -120 OFFCURVE",
"515 -115 OFFCURVE",
"495 -111 CURVE",
"448 -102 OFFCURVE",
"450 -103 OFFCURVE",
"471 -80 CURVE",
"493 -55 OFFCURVE",
"501 -44 OFFCURVE",
"499 -27 CURVE",
"498 -14 OFFCURVE",
"492 0 OFFCURVE",
"482 10 CURVE",
"463 31 OFFCURVE",
"411 56 OFFCURVE",
"347 71 CURVE",
"334 74 OFFCURVE",
"318 80 OFFCURVE",
"309 82 CURVE",
"290 86 OFFCURVE",
"242 96 OFFCURVE",
"180 105 CURVE",
"151 110 OFFCURVE",
"119 115 OFFCURVE",
"104 118 CURVE",
"88 120 OFFCURVE",
"67 123 OFFCURVE",
"56 125 CURVE",
"45 126 OFFCURVE",
"34 127 OFFCURVE",
"33 128 CURVE",
"26 135 OFFCURVE",
"35 144 OFFCURVE",
"52 149 CURVE",
"80 160 OFFCURVE",
"125 164 OFFCURVE",
"206 164 CURVE",
"264 164 OFFCURVE",
"278 164 OFFCURVE",
"293 160 CURVE",
"378 146 OFFCURVE",
"494 113 OFFCURVE",
"546 86 CURVE",
"636 42 OFFCURVE",
"681 -10 OFFCURVE",
"681 -71 CURVE",
"681 -92 OFFCURVE",
"676 -106 OFFCURVE",
"667 -116 CURVE",
"656 -130 OFFCURVE",
"649 -133 OFFCURVE",
"626 -133 CURVE",
"610 -134 OFFCURVE",
"602 -132 OFFCURVE",
"569 -126 CURVE"
);
},
{
closed = 1;
nodes = (
"1596 -157 OFFCURVE",
"1553 -152 OFFCURVE",
"1533 -149 CURVE",
"1496 -143 OFFCURVE",
"1482 -137 OFFCURVE",
"1482 -128 CURVE",
"1482 -108 OFFCURVE",
"1469 -77 OFFCURVE",
"1452 -56 CURVE",
"1431 -29 OFFCURVE",
"1414 -18 OFFCURVE",
"1353 11 CURVE",
"1257 56 OFFCURVE",
"1156 80 OFFCURVE",
"1060 80 CURVE",
"1005 80 OFFCURVE",
"952 69 OFFCURVE",
"929 54 CURVE",
"918 46 OFFCURVE",
"905 31 OFFCURVE",
"901 20 CURVE",
"898 11 OFFCURVE",
"898 -8 OFFCURVE",
"901 -15 CURVE",
"908 -29 OFFCURVE",
"933 -51 OFFCURVE",
"967 -73 CURVE",
"977 -79 OFFCURVE",
"982 -84 OFFCURVE",
"981 -85 CURVE",
"980 -86 OFFCURVE",
"963 -87 OFFCURVE",
"940 -86 CURVE",
"904 -85 OFFCURVE",
"899 -85 OFFCURVE",
"870 -79 CURVE",
"834 -71 OFFCURVE",
"809 -65 OFFCURVE",
"797 -60 CURVE",
"784 -54 OFFCURVE",
"753 -26 OFFCURVE",
"743 -11 CURVE",
"732 6 OFFCURVE",
"729 19 OFFCURVE",
"729 46 CURVE",
"729 67 OFFCURVE",
"729 69 OFFCURVE",
"734 79 CURVE",
"739 91 OFFCURVE",
"753 105 OFFCURVE",
"766 112 CURVE",
"783 122 OFFCURVE",
"803 129 OFFCURVE",
"842 137 CURVE",
"867 143 LINE",
"939 143 LINE",
"1018 143 OFFCURVE",
"1043 141 OFFCURVE",
"1106 132 CURVE",
"1188 120 OFFCURVE",
"1296 96 OFFCURVE",
"1341 81 CURVE",
"1400 60 OFFCURVE",
"1452 37 OFFCURVE",
"1481 18 CURVE",
"1490 12 OFFCURVE",
"1509 0 OFFCURVE",
"1523 -8 CURVE",
"1585 -43 OFFCURVE",
"1624 -70 OFFCURVE",
"1653 -100 CURVE",
"1689 -135 OFFCURVE",
"1692 -154 OFFCURVE",
"1664 -160 CURVE",
"1660 -161 OFFCURVE",
"1655 -162 OFFCURVE",
"1654 -162 CURVE",
"1653 -161 OFFCURVE",
"1644 -161 OFFCURVE",
"1633 -160 CURVE"
);
}
);
width = 1713;
}
);
},
{
export = 0;
glyphname = apostrophos;
lastChange = "2019-04-16 18:00:57 +0000";
layers = (
{
layerId = "C0F12C34-0F87-4A08-A93A-59AC8BF14692";
paths = (
{
closed = 1;
nodes = (
"548 -120 OFFCURVE",
"515 -115 OFFCURVE",
"495 -111 CURVE",
"448 -102 OFFCURVE",
"450 -103 OFFCURVE",
"471 -80 CURVE",
"493 -55 OFFCURVE",
"501 -44 OFFCURVE",
"499 -27 CURVE",
"498 -14 OFFCURVE",
"492 0 OFFCURVE",
"482 10 CURVE",
"463 31 OFFCURVE",
"411 56 OFFCURVE",
"347 71 CURVE",
"334 74 OFFCURVE",
"318 80 OFFCURVE",
"309 82 CURVE",
"290 86 OFFCURVE",
"242 96 OFFCURVE",
"180 105 CURVE",
"151 110 OFFCURVE",
"119 115 OFFCURVE",
"104 118 CURVE",
"88 120 OFFCURVE",
"67 123 OFFCURVE",
"56 125 CURVE",
"45 126 OFFCURVE",
"34 127 OFFCURVE",
"33 128 CURVE",
"26 135 OFFCURVE",
"35 144 OFFCURVE",
"52 149 CURVE",
"80 160 OFFCURVE",
"125 164 OFFCURVE",
"206 164 CURVE",
"264 164 OFFCURVE",
"278 164 OFFCURVE",
"293 160 CURVE",
"378 146 OFFCURVE",
"494 113 OFFCURVE",
"546 86 CURVE",
"636 42 OFFCURVE",
"681 -10 OFFCURVE",
"681 -71 CURVE",
"681 -92 OFFCURVE",
"676 -106 OFFCURVE",
"667 -116 CURVE",
"656 -130 OFFCURVE",
"649 -133 OFFCURVE",
"626 -133 CURVE",
"610 -134 OFFCURVE",
"602 -132 OFFCURVE",
"569 -126 CURVE"
);
}
);
width = 714;
}
);
},
{
export = 0;
glyphname = martyria;
lastChange = "2019-04-16 18:00:57 +0000";
layers = (
{
layerId = "C0F12C34-0F87-4A08-A93A-59AC8BF14692";
paths = (
{
closed = 1;
nodes = (
"139 -692 OFFCURVE",
"121 -685 OFFCURVE",
"113 -677 CURVE",
"110 -675 OFFCURVE",
"105 -669 OFFCURVE",
"103 -664 CURVE",
"100 -657 OFFCURVE",
"99 -654 OFFCURVE",
"100 -637 CURVE",
"102 -608 OFFCURVE",
"110 -589 OFFCURVE",
"132 -563 CURVE",
"156 -535 OFFCURVE",
"209 -502 OFFCURVE",
"263 -481 CURVE",
"272 -478 OFFCURVE",
"278 -474 OFFCURVE",
"278 -473 CURVE",
"278 -472 OFFCURVE",
"271 -463 OFFCURVE",
"264 -452 CURVE",
"236 -413 OFFCURVE",
"211 -369 OFFCURVE",
"205 -349 CURVE",
"201 -335 OFFCURVE",
"201 -319 OFFCURVE",
"205 -307 CURVE",
"215 -280 OFFCURVE",
"230 -261 OFFCURVE",
"247 -257 CURVE",
"277 -249 OFFCURVE",
"313 -247 OFFCURVE",
"331 -253 CURVE",
"368 -264 OFFCURVE",
"401 -290 OFFCURVE",
"427 -331 CURVE",
"452 -367 OFFCURVE",
"459 -397 OFFCURVE",
"461 -465 CURVE",
"461 -500 OFFCURVE",
"461 -508 OFFCURVE",
"458 -528 CURVE",
"456 -541 OFFCURVE",
"455 -552 OFFCURVE",
"455 -552 CURVE",
"456 -553 OFFCURVE",
"466 -553 OFFCURVE",
"479 -553 CURVE",
"501 -553 OFFCURVE",
"502 -554 OFFCURVE",
"515 -560 CURVE",
"522 -563 OFFCURVE",
"532 -570 OFFCURVE",
"537 -574 CURVE",
"565 -599 OFFCURVE",
"585 -645 OFFCURVE",
"579 -673 CURVE",
"577 -685 OFFCURVE",
"572 -694 OFFCURVE",
"567 -694 CURVE",
"565 -694 OFFCURVE",
"554 -690 OFFCURVE",
"541 -686 CURVE",
"518 -678 LINE",
"518 -669 LINE",
"519 -634 OFFCURVE",
"519 -628 OFFCURVE",
"516 -621 CURVE",
"507 -597 OFFCURVE",
"488 -587 OFFCURVE",
"448 -585 CURVE",
"424 -584 LINE",
"425 -579 LINE",
"431 -537 OFFCURVE",
"419 -477 OFFCURVE",
"391 -406 CURVE",
"374 -363 OFFCURVE",
"366 -349 OFFCURVE",
"355 -338 CURVE",
"335 -320 OFFCURVE",
"313 -308 OFFCURVE",
"304 -310 CURVE",
"296 -312 OFFCURVE",
"287 -319 OFFCURVE",
"280 -329 CURVE",
"273 -339 OFFCURVE",
"273 -340 OFFCURVE",
"273 -357 CURVE",
"273 -371 OFFCURVE",
"274 -378 OFFCURVE",
"277 -386 CURVE",
"284 -407 OFFCURVE",
"304 -437 OFFCURVE",
"339 -480 CURVE",
"360 -505 LINE",
"364 -526 LINE",
"367 -546 OFFCURVE",
"367 -547 OFFCURVE",
"364 -561 CURVE",
"356 -597 OFFCURVE",
"344 -621 OFFCURVE",
"327 -638 CURVE",
"304 -661 OFFCURVE",
"261 -686 OFFCURVE",
"231 -694 CURVE",
"210 -699 OFFCURVE",
"177 -700 OFFCURVE",
"156 -696 CURVE"
);
},
{
closed = 1;
nodes = (
"268 -643 OFFCURVE",
"296 -602 OFFCURVE",
"314 -550 CURVE",
"323 -521 OFFCURVE",
"321 -511 OFFCURVE",
"306 -511 CURVE",
"290 -511 OFFCURVE",
"257 -541 OFFCURVE",
"226 -582 CURVE",
"210 -602 LINE",
"207 -624 LINE",
"202 -648 OFFCURVE",
"203 -653 OFFCURVE",
"212 -659 CURVE",
"218 -663 OFFCURVE",
"227 -662 OFFCURVE",
"241 -655 CURVE"
);
},
{
closed = 1;
nodes = (
"355 -220 OFFCURVE",
"347 -219 OFFCURVE",
"346 -218 CURVE",
"343 -216 OFFCURVE",
"344 -209 OFFCURVE",
"348 -206 CURVE",
"350 -205 OFFCURVE",
"352 -201 OFFCURVE",
"353 -196 CURVE",
"355 -180 OFFCURVE",
"339 -159 OFFCURVE",
"305 -135 CURVE",
"286 -122 OFFCURVE",
"285 -118 OFFCURVE",
"300 -118 CURVE",
"320 -118 OFFCURVE",
"348 -131 OFFCURVE",
"378 -152 CURVE",
"402 -169 OFFCURVE",
"414 -201 OFFCURVE",
"403 -218 CURVE",
"400 -222 OFFCURVE",
"399 -223 OFFCURVE",
"389 -222 CURVE",
"383 -222 OFFCURVE",
"371 -222 OFFCURVE",
"363 -221 CURVE"
);
},
{
closed = 1;
nodes = (
"261 -206 OFFCURVE",
"255 -204 OFFCURVE",
"252 -201 CURVE",
"250 -198 OFFCURVE",
"250 -196 OFFCURVE",
"255 -189 CURVE",
"262 -178 OFFCURVE",
"261 -175 OFFCURVE",
"250 -163 CURVE",
"240 -152 OFFCURVE",
"230 -146 OFFCURVE",
"210 -135 CURVE",
"202 -130 OFFCURVE",
"195 -126 OFFCURVE",
"195 -125 CURVE",
"195 -123 OFFCURVE",
"197 -121 OFFCURVE",
"200 -119 CURVE",
"204 -117 OFFCURVE",
"206 -117 OFFCURVE",
"228 -123 CURVE",
"256 -131 OFFCURVE",
"284 -143 OFFCURVE",
"296 -154 CURVE",
"308 -165 OFFCURVE",
"314 -177 OFFCURVE",
"314 -191 CURVE",
"314 -207 OFFCURVE",
"310 -210 OFFCURVE",
"293 -210 CURVE",
"286 -210 OFFCURVE",
"277 -209 OFFCURVE",
"272 -208 CURVE"
);
},
{
closed = 1;
nodes = (
"135 -39 OFFCURVE",
"133 -34 OFFCURVE",
"142 -27 CURVE",
"146 -23 OFFCURVE",
"152 -22 OFFCURVE",
"176 -21 CURVE",
"204 -20 LINE",
"249 91 LINE",
"273 152 OFFCURVE",
"294 204 OFFCURVE",
"296 208 CURVE",
"298 212 OFFCURVE",
"302 214 OFFCURVE",
"307 214 CURVE",
"314 214 OFFCURVE",
"316 212 OFFCURVE",
"322 201 CURVE",
"325 194 OFFCURVE",
"337 161 OFFCURVE",
"348 128 CURVE",
"385 14 OFFCURVE",
"396 -15 OFFCURVE",
"415 -47 CURVE",
"420 -55 OFFCURVE",
"423 -64 OFFCURVE",
"423 -66 CURVE",
"422 -69 OFFCURVE",
"399 -69 OFFCURVE",
"294 -69 CURVE",
"167 -69 LINE",
"152 -55 LINE"
);
},
{
closed = 1;
nodes = (
"325 -2 OFFCURVE",
"309 88 OFFCURVE",
"307 89 CURVE",
"303 90 OFFCURVE",
"265 7 OFFCURVE",
"265 -1 CURVE",
"265 -8 LINE",
"294 -5 LINE",
"309 -5 OFFCURVE",
"323 -4 OFFCURVE",
"324 -4 CURVE"
);
}
);
width = 680;
}
);
},
{
export = 0;
glyphname = ano2;
lastChange = "2019-04-16 18:00:57 +0000";
layers = (
{
layerId = "C0F12C34-0F87-4A08-A93A-59AC8BF14692";
paths = (
{
closed = 1;
nodes = (
"1430 2 OFFCURVE",
"1396 6 OFFCURVE",
"1368 9 CURVE",
"1231 18 OFFCURVE",
"1151 20 OFFCURVE",
"1049 16 CURVE",
"932 10 OFFCURVE",
"872 9 OFFCURVE",
"710 3 CURVE",
"582 1 OFFCURVE",
"541 1 OFFCURVE",
"507 3 CURVE",
"377 15 OFFCURVE",
"287 23 OFFCURVE",
"251 31 CURVE",
"228 35 OFFCURVE",
"196 54 OFFCURVE",
"163 80 CURVE",
"142 96 OFFCURVE",
"141 98 OFFCURVE",
"141 107 CURVE",
"140 118 OFFCURVE",
"141 119 OFFCURVE",
"147 120 CURVE",
"149 120 OFFCURVE",
"166 119 OFFCURVE",
"182 114 CURVE",
"250 101 OFFCURVE",
"265 100 OFFCURVE",
"419 99 CURVE",
"500 98 OFFCURVE",
"638 99 OFFCURVE",
"738 101 CURVE",
"832 102 OFFCURVE",
"982 104 OFFCURVE",
"1069 104 CURVE",
"1212 104 OFFCURVE",
"1231 104 OFFCURVE",
"1254 100 CURVE",
"1320 88 OFFCURVE",
"1415 60 OFFCURVE",
"1466 34 CURVE",
"1484 24 OFFCURVE",
"1495 10 OFFCURVE",
"1492 1 CURVE",
"1488 -4 OFFCURVE",
"1478 -4 OFFCURVE",
"1441 1 CURVE"
);
},
{
closed = 1;
nodes = (
"1100 203 OFFCURVE",
"1094 203 OFFCURVE",
"1075 206 CURVE",
"1063 207 OFFCURVE",
"1055 210 OFFCURVE",
"1046 214 CURVE",
"1026 225 OFFCURVE",
"1027 229 OFFCURVE",
"1008 252 CURVE",
"999 266 OFFCURVE",
"1001 259 OFFCURVE",
"991 288 CURVE",
"989 294 OFFCURVE",
"986 300 OFFCURVE",
"986 301 CURVE",
"986 306 OFFCURVE",
"977 322 OFFCURVE",
"968 331 CURVE",
"958 341 OFFCURVE",
"955 349 OFFCURVE",
"958 357 CURVE",
"961 366 OFFCURVE",
"968 371 OFFCURVE",
"982 370 CURVE",
"1013 370 OFFCURVE",
"1057 367 OFFCURVE",
"1063 366 CURVE",
"1069 365 OFFCURVE",
"1084 353 OFFCURVE",
"1093 341 CURVE",
"1095 338 OFFCURVE",
"1096 337 OFFCURVE",
"1098 332 CURVE",
"1100 329 OFFCURVE",
"1103 322 OFFCURVE",
"1105 318 CURVE",
"1108 312 OFFCURVE",
"1114 298 OFFCURVE",
"1121 285 CURVE",
"1135 260 OFFCURVE",
"1140 254 OFFCURVE",
"1157 252 CURVE",
"1162 251 OFFCURVE",
"1166 250 OFFCURVE",
"1171 246 CURVE",
"1177 243 OFFCURVE",
"1178 242 OFFCURVE",
"1178 235 CURVE",
"1178 227 OFFCURVE",
"1174 222 OFFCURVE",
"1155 212 CURVE",
"1138 205 OFFCURVE",
"1135 204 OFFCURVE",
"1115 203 CURVE"
);
},
{
closed = 1;
nodes = (
"1310 203 OFFCURVE",
"1304 203 OFFCURVE",
"1285 206 CURVE",
"1273 207 OFFCURVE",
"1265 210 OFFCURVE",
"1256 214 CURVE",
"1236 225 OFFCURVE",
"1237 229 OFFCURVE",
"1218 252 CURVE",
"1209 266 OFFCURVE",
"1211 259 OFFCURVE",
"1201 288 CURVE",
"1199 294 OFFCURVE",
"1196 300 OFFCURVE",
"1196 301 CURVE",
"1196 306 OFFCURVE",
"1187 322 OFFCURVE",
"1178 331 CURVE",
"1168 341 OFFCURVE",
"1165 349 OFFCURVE",
"1168 357 CURVE",
"1171 366 OFFCURVE",
"1178 371 OFFCURVE",
"1192 370 CURVE",
"1223 370 OFFCURVE",
"1267 367 OFFCURVE",
"1273 366 CURVE",
"1279 365 OFFCURVE",
"1294 353 OFFCURVE",
"1303 341 CURVE",
"1305 338 OFFCURVE",
"1306 337 OFFCURVE",
"1308 332 CURVE",
"1310 329 OFFCURVE",
"1313 322 OFFCURVE",
"1315 318 CURVE",
"1318 312 OFFCURVE",
"1324 298 OFFCURVE",
"1331 285 CURVE",
"1345 260 OFFCURVE",
"1350 254 OFFCURVE",
"1367 252 CURVE",
"1372 251 OFFCURVE",
"1376 250 OFFCURVE",
"1381 246 CURVE",
"1387 243 OFFCURVE",
"1388 242 OFFCURVE",
"1388 235 CURVE",
"1388 227 OFFCURVE",
"1384 222 OFFCURVE",
"1365 212 CURVE",
"1348 205 OFFCURVE",
"1345 204 OFFCURVE",
"1325 203 CURVE"
);
},
{
closed = 1;
nodes = (
"260 208 OFFCURVE",
"176 229 OFFCURVE",
"96 278 CURVE",
"52 304 OFFCURVE",
"30 326 OFFCURVE",
"30 348 CURVE",
"30 365 OFFCURVE",
"40 375 OFFCURVE",
"61 382 CURVE",
"78 386 OFFCURVE",
"120 388 OFFCURVE",
"151 385 CURVE",
"214 381 OFFCURVE",
"256 367 OFFCURVE",
"290 342 CURVE",
"300 334 OFFCURVE",
"301 330 OFFCURVE",
"304 322 CURVE",
"307 310 LINE",
"296 311 LINE",
"290 312 OFFCURVE",
"265 314 OFFCURVE",
"240 316 CURVE",
"192 321 OFFCURVE",
"182 320 OFFCURVE",
"170 310 CURVE",
"163 305 OFFCURVE",
"162 302 OFFCURVE",
"168 290 CURVE",
"175 276 OFFCURVE",
"185 271 OFFCURVE",
"223 265 CURVE",
"270 257 OFFCURVE",
"300 257 OFFCURVE",
"404 267 CURVE",
"487 275 OFFCURVE",
"529 278 OFFCURVE",
"656 282 CURVE",
"719 285 OFFCURVE",
"731 284 OFFCURVE",
"764 275 CURVE",
"820 261 OFFCURVE",
"898 222 OFFCURVE",
"898 207 CURVE",
"898 204 OFFCURVE",
"820 204 OFFCURVE",
"766 208 CURVE",
"718 213 OFFCURVE",
"644 212 OFFCURVE",
"558 205 CURVE",
"506 202 OFFCURVE",
"481 202 OFFCURVE",
"383 205 CURVE"
);
}
);
width = 1522;
}
);
},
{
export = 0;
glyphname = doubleapostrophos;
lastChange = "2019-04-16 18:00:57 +0000";
layers = (
{
layerId = "C0F12C34-0F87-4A08-A93A-59AC8BF14692";
paths = (
{
closed = 1;
nodes = (
"543 -15 OFFCURVE",
"505 -8 OFFCURVE",
"505 -7 CURVE",
"504 -7 OFFCURVE",
"503 -3 OFFCURVE",
"503 1 CURVE",
"503 6 OFFCURVE",
"505 10 OFFCURVE",
"519 21 CURVE",
"528 29 OFFCURVE",
"539 39 OFFCURVE",
"543 43 CURVE",
"565 73 OFFCURVE",
"534 108 OFFCURVE",
"465 132 CURVE",
"441 141 OFFCURVE",
"345 165 OFFCURVE",
"310 171 CURVE",
"271 178 OFFCURVE",
"238 183 OFFCURVE",
"182 186 CURVE",
"132 189 OFFCURVE",
"46 196 OFFCURVE",
"38 198 CURVE",
"33 199 OFFCURVE",
"28 209 OFFCURVE",
"30 212 CURVE",
"39 228 OFFCURVE",
"95 238 OFFCURVE",
"173 241 CURVE",
"206 243 OFFCURVE",
"219 242 OFFCURVE",
"306 236 CURVE",
"351 232 OFFCURVE",
"409 222 OFFCURVE",
"522 195 CURVE",
"659 164 OFFCURVE",
"743 110 OFFCURVE",
"759 44 CURVE",
"764 18 OFFCURVE",
"759 -7 OFFCURVE",
"743 -22 CURVE",
"719 -42 OFFCURVE",
"700 -43 OFFCURVE",
"587 -24 CURVE"
);
},
{
closed = 1;
nodes = (
"1383 -265 OFFCURVE",
"1345 -258 OFFCURVE",
"1345 -257 CURVE",
"1344 -257 OFFCURVE",
"1343 -253 OFFCURVE",
"1343 -249 CURVE",
"1343 -244 OFFCURVE",
"1345 -240 OFFCURVE",
"1359 -229 CURVE",
"1368 -221 OFFCURVE",
"1379 -211 OFFCURVE",
"1383 -207 CURVE",
"1405 -177 OFFCURVE",
"1374 -142 OFFCURVE",
"1305 -118 CURVE",
"1281 -109 OFFCURVE",
"1185 -85 OFFCURVE",
"1150 -79 CURVE",
"1111 -72 OFFCURVE",
"1078 -67 OFFCURVE",
"1022 -64 CURVE",
"972 -61 OFFCURVE",
"886 -54 OFFCURVE",
"878 -52 CURVE",
"873 -51 OFFCURVE",
"868 -41 OFFCURVE",
"870 -38 CURVE",
"879 -22 OFFCURVE",
"935 -12 OFFCURVE",
"1013 -9 CURVE",
"1046 -7 OFFCURVE",
"1059 -8 OFFCURVE",
"1146 -14 CURVE",
"1191 -18 OFFCURVE",
"1249 -28 OFFCURVE",
"1362 -55 CURVE",
"1499 -86 OFFCURVE",
"1583 -140 OFFCURVE",
"1599 -206 CURVE",
"1604 -232 OFFCURVE",
"1599 -257 OFFCURVE",
"1583 -272 CURVE",
"1559 -292 OFFCURVE",
"1540 -293 OFFCURVE",
"1427 -274 CURVE"
);
}
);
width = 1631;
}
);
},
{
export = 0;
glyphname = stacked;
lastChange = "2019-04-16 18:00:57 +0000";
layers = (
{
layerId = "C0F12C34-0F87-4A08-A93A-59AC8BF14692";
paths = (
{
closed = 1;
nodes = (
"1040 1 OFFCURVE",
"970 5 OFFCURVE",
"870 1 CURVE SMOOTH",
"817 -2 OFFCURVE",
"694 -4 OFFCURVE",
"599 -4 CURVE SMOOTH",
"425 -4 OFFCURVE",
"309 -3 OFFCURVE",
"188 54 CURVE SMOOTH",
"89 99 OFFCURVE",
"30 150 OFFCURVE",
"30 188 CURVE SMOOTH",
"30 227 OFFCURVE",
"59 238 OFFCURVE",
"158 238 CURVE SMOOTH",
"237 237 OFFCURVE",
"274 230 OFFCURVE",
"327 205 CURVE SMOOTH",
"363 189 OFFCURVE",
"415 159 OFFCURVE",
"407 147 CURVE SMOOTH",
"397 133 OFFCURVE",
"379 141 OFFCURVE",
"283 144 CURVE SMOOTH",
"170 147 OFFCURVE",
"182 97 OFFCURVE",
"291 75 CURVE SMOOTH",
"353 62 OFFCURVE",
"386 63 OFFCURVE",
"546 79 CURVE SMOOTH",
"846 108 OFFCURVE",
"984 121 OFFCURVE",
"1129 52 CURVE SMOOTH",
"1185 25 OFFCURVE",
"1219 -4 OFFCURVE",
"1215 -16 CURVE SMOOTH",
"1212 -24 OFFCURVE",
"1210 -24 OFFCURVE",
"1156 -17 CURVE SMOOTH"
);
},
{
closed = 1;
nodes = (
"1329 -334 OFFCURVE",
"1306 -334 OFFCURVE",
"1306 -321 CURVE SMOOTH",
"1306 -311 OFFCURVE",
"1330 -297 OFFCURVE",
"1342 -283 CURVE SMOOTH",
"1365 -257 OFFCURVE",
"1334 -224 OFFCURVE",
"1271 -202 CURVE SMOOTH",
"1209 -180 OFFCURVE",
"1094 -157 OFFCURVE",
"1015 -153 CURVE SMOOTH",
"969 -150 OFFCURVE",
"891 -145 OFFCURVE",
"884 -142 CURVE SMOOTH",
"877 -139 OFFCURVE",
"874 -134 OFFCURVE",
"877 -129 CURVE SMOOTH",
"885 -116 OFFCURVE",
"936 -106 OFFCURVE",
"1007 -103 CURVE SMOOTH",
"1101 -99 OFFCURVE",
"1207 -116 OFFCURVE",
"1323 -145 CURVE SMOOTH",
"1447 -175 OFFCURVE",
"1526 -221 OFFCURVE",
"1538 -282 CURVE SMOOTH",
"1543 -305 OFFCURVE",
"1539 -329 OFFCURVE",
"1524 -341 CURVE SMOOTH",
"1502 -359 OFFCURVE",
"1485 -361 OFFCURVE",
"1382 -343 CURVE SMOOTH"
);
}
);
width = 1490;
}
);
},
{
export = 0;
glyphname = test;
lastChange = "2019-04-16 18:00:57 +0000";
layers = (
{
layerId = "C0F12C34-0F87-4A08-A93A-59AC8BF14692";
paths = (
{
closed = 0;
nodes = (
"1128 207 LINE",
"1118 217 OFFCURVE",
"1117 219 OFFCURVE",
"1127 234 CURVE"
);
},
{
closed = 1;
nodes = (
"489 -207 OFFCURVE",
"432 -178 OFFCURVE",
"422 -127 CURVE",
"419 -111 OFFCURVE",
"419 -109 OFFCURVE",
"428 -109 CURVE",
"434 -109 OFFCURVE",
"455 -118 OFFCURVE",
"475 -125 CURVE",
"547 -156 OFFCURVE",
"601 -173 OFFCURVE",
"635 -173 CURVE",
"669 -173 LINE",
"643 -151 LINE",
"629 -138 OFFCURVE",
"618 -124 OFFCURVE",
"618 -121 CURVE",
"618 -118 OFFCURVE",
"623 -110 OFFCURVE",
"632 -106 CURVE",
"642 -99 OFFCURVE",
"655 -98 OFFCURVE",
"699 -100 CURVE",
"766 -101 OFFCURVE",
"791 -112 OFFCURVE",
"809 -144 CURVE",
"818 -163 OFFCURVE",
"818 -165 OFFCURVE",
"811 -186 CURVE",
"800 -223 OFFCURVE",
"783 -230 OFFCURVE",
"721 -232 CURVE",
"693 -232 OFFCURVE",
"647 -229 OFFCURVE",
"620 -226 CURVE"
);
},
{
closed = 1;
nodes = (
"977 0 OFFCURVE",
"835 13 OFFCURVE",
"644 7 CURVE",
"309 -2 OFFCURVE",
"199 8 OFFCURVE",
"99 58 CURVE",
"47 85 OFFCURVE",
"14 134 OFFCURVE",
"38 155 CURVE",
"45 160 OFFCURVE",
"52 160 OFFCURVE",
"75 150 CURVE",
"154 121 OFFCURVE",
"169 121 OFFCURVE",
"529 121 CURVE",
"888 121 OFFCURVE",
"873 121 OFFCURVE",
"952 90 CURVE",
"988 78 OFFCURVE",
"1036 48 OFFCURVE",
"1068 23 CURVE",
"1094 2 OFFCURVE",
"1101 -22 OFFCURVE",
"1087 -31 CURVE",
"1077 -41 OFFCURVE",
"1079 -41 OFFCURVE",
"1049 -28 CURVE"
);
},
{
closed = 1;
nodes = (
"520 195 OFFCURVE",
"504 217 OFFCURVE",
"487 284 CURVE",
"470 343 OFFCURVE",
"462 359 OFFCURVE",
"442 365 CURVE",
"422 373 OFFCURVE",
"422 381 OFFCURVE",
"441 391 CURVE",
"455 399 OFFCURVE",
"530 397 OFFCURVE",
"556 386 CURVE",
"578 379 OFFCURVE",
"602 336 OFFCURVE",
"618 276 CURVE",
"632 226 OFFCURVE",
"640 211 OFFCURVE",
"655 207 CURVE",
"669 202 OFFCURVE",
"671 189 OFFCURVE",
"656 183 CURVE",
"642 173 OFFCURVE",
"594 175 OFFCURVE",
"562 184 CURVE"
);
},
{
closed = 1;
nodes = (
"735 257 OFFCURVE",
"736 260 OFFCURVE",
"749 271 CURVE",
"758 278 OFFCURVE",
"784 292 OFFCURVE",
"809 302 CURVE",
"835 314 OFFCURVE",
"852 323 OFFCURVE",
"850 330 CURVE",
"840 364 OFFCURVE",
"853 407 OFFCURVE",
"882 422 CURVE",
"921 443 OFFCURVE",
"1018 436 OFFCURVE",
"1046 413 CURVE",
"1057 402 OFFCURVE",
"1061 395 OFFCURVE",
"1061 373 CURVE",
"1062 316 OFFCURVE",
"1026 289 OFFCURVE",
"953 288 CURVE",
"930 288 OFFCURVE",
"900 289 OFFCURVE",
"887 292 CURVE",
"864 296 OFFCURVE",
"862 295 OFFCURVE",
"820 264 CURVE",
"770 226 OFFCURVE",
"750 222 OFFCURVE",
"740 245 CURVE"
);
},
{
closed = 1;
nodes = (
"980 333 OFFCURVE",
"1000 355 OFFCURVE",
"1000 372 CURVE",
"1000 397 OFFCURVE",
"930 407 OFFCURVE",
"909 386 CURVE",
"894 373 OFFCURVE",
"890 351 OFFCURVE",
"898 341 CURVE",
"908 331 OFFCURVE",
"925 321 OFFCURVE",
"936 324 CURVE",
"939 326 OFFCURVE",
"952 329 OFFCURVE",
"960 331 CURVE"
);
}
);
width = 1158;
}
);
},
{
export = 0;
glyphname = oligon;
lastChange = "2019-04-16 18:00:57 +0000";
layers = (
{
layerId = "C0F12C34-0F87-4A08-A93A-59AC8BF14692";
paths = (
{
closed = 1;
nodes = (
"1034 -15 OFFCURVE",
"929 -6 OFFCURVE",
"606 -5 CURVE SMOOTH",
"326 -4 OFFCURVE",
"260 -2 OFFCURVE",
"203 13 CURVE SMOOTH",
"112 36 OFFCURVE",
"60 64 OFFCURVE",
"40 101 CURVE SMOOTH",
"17 146 OFFCURVE",
"33 155 OFFCURVE",
"97 134 CURVE SMOOTH",
"144 118 OFFCURVE",
"196 115 OFFCURVE",
"514 114 CURVE SMOOTH",
"847 112 OFFCURVE",
"887 110 OFFCURVE",
"949 91 CURVE SMOOTH",
"1028 67 OFFCURVE",
"1125 3 OFFCURVE",
"1125 -25 CURVE SMOOTH",
"1125 -47 OFFCURVE",
"1103 -54 OFFCURVE",
"1080 -41 CURVE SMOOTH"
);
}
